<svg width="131" height="113" viewBox="0 0 131 113" fill="none" xmlns="http://www.w3.org/2000/svg">
<g id="coupon">
<path id="vector (Stroke)" fill-rule="evenodd" clip-rule="evenodd" d="M26.1159 12.8714C29.6887 5.97844 38.1728 3.28691 45.0657 6.85966L117.681 44.4977C124.574 48.0704 127.265 56.5545 123.693 63.4474L122.765 65.2376C121.487 67.7016 119.51 69.7324 117.08 71.0742L112.605 73.5455C108.541 75.7903 106.225 80.2589 106.733 84.8742L107.294 89.9553C107.598 92.7139 107.079 95.5008 105.801 97.9648L104.874 99.755C101.301 106.648 92.8167 109.339 85.9238 105.767L13.3086 68.1287C6.41572 64.5559 3.72419 56.0718 7.29693 49.1789L8.22482 47.3887C9.50197 44.9247 11.4799 42.8939 13.9093 41.5522L18.3841 39.0808C22.4487 36.836 24.7648 32.3674 24.256 27.7522L23.6958 22.6711C23.3917 19.9125 23.9109 17.1255 25.188 14.6615L26.1159 12.8714Z" fill="white" fill-opacity="0.4"/>
<path id="line (Stroke)" fill-rule="evenodd" clip-rule="evenodd" d="M67.5918 30.0504C69.4717 31.0248 70.2058 33.3386 69.2314 35.2185L66.879 39.757C65.9046 41.6369 63.5908 42.3709 61.7109 41.3965C59.831 40.4221 59.0969 38.1083 60.0713 36.2284L62.4237 31.69C63.3981 29.8101 65.7119 29.076 67.5918 30.0504Z" fill="white"/>
<path id="line (Stroke)_2" fill-rule="evenodd" clip-rule="evenodd" d="M60.5347 43.6666C62.4146 44.641 63.1486 46.9549 62.1742 48.8347L57.4695 57.9116C56.4951 59.7915 54.1813 60.5256 52.3014 59.5512C50.4215 58.5768 49.6874 56.263 50.6618 54.3831L55.3666 45.3062C56.341 43.4263 58.6548 42.6922 60.5347 43.6666Z" fill="white"/>
<path id="line (Stroke)_3" fill-rule="evenodd" clip-rule="evenodd" d="M51.125 61.8199C53.0049 62.7943 53.739 65.1082 52.7646 66.9881L50.4122 71.5265C49.4378 73.4064 47.124 74.1404 45.2441 73.1661C43.3642 72.1917 42.6302 69.8778 43.6045 67.9979L45.9569 63.4595C46.9313 61.5796 49.2451 60.8456 51.125 61.8199Z" fill="white"/>
</g>
</svg>
