<svg width="24" height="24" viewBox="0 0 24 24" xmlns="http://www.w3.org/2000/svg">
<path d="M7.37309 12.4287C7.12527 12.2238 6.80235 12.1126 6.46911 12.1174C6.13586 12.1223 5.81693 12.2428 5.5763 12.4549C5.33567 12.667 5.19113 12.955 5.17169 13.261C5.15224 13.567 5.25931 13.8684 5.47144 14.1049L8.40315 16.9349C8.52589 17.0533 8.67339 17.1477 8.83678 17.2124C9.00017 17.2771 9.17609 17.3108 9.35398 17.3114C9.53092 17.3123 9.70627 17.2806 9.86961 17.218C10.0329 17.1554 10.1809 17.0632 10.3048 16.947L19.2584 8.44489C19.3798 8.33005 19.4754 8.19434 19.5398 8.04551C19.6042 7.89669 19.636 7.73766 19.6336 7.5775C19.6311 7.41735 19.5944 7.25921 19.5255 7.11211C19.4566 6.965 19.3569 6.83183 19.232 6.72018C19.1071 6.60852 18.9596 6.52059 18.7978 6.46138C18.636 6.40218 18.463 6.37287 18.2889 6.37512C18.1148 6.37738 17.9428 6.41116 17.7829 6.47453C17.623 6.5379 17.4782 6.62963 17.3568 6.74447L9.36718 14.3478L7.37309 12.4287Z"/>
</svg>
