<svg width="490" height="197" viewBox="0 0 490 197" fill="none" xmlns="http://www.w3.org/2000/svg">
<path fill-rule="evenodd" clip-rule="evenodd" d="M0 30C0 13.4315 13.4315 0 30 0H460C476.569 0 490 13.4315 490 30V74.6567C490 78.9695 487.004 82.6029 483.798 85.4878C480.238 88.6912 478 93.3342 478 98.5C478 103.666 480.238 108.309 483.798 111.512C487.004 114.397 490 118.031 490 122.343V167C490 183.569 476.569 197 460 197H30C13.4314 197 0 183.569 0 167V123.109C0 118.574 3.29931 114.812 6.76785 111.89C10.5787 108.68 13 103.873 13 98.5C13 93.1272 10.5787 88.3199 6.76785 85.1097C3.29931 82.188 0 78.4264 0 73.8913V30Z" fill="#E63900"/>
</svg>
