<svg width="29" height="28" viewBox="0 0 29 28" xmlns="http://www.w3.org/2000/svg">
<path fill-rule="evenodd" clip-rule="evenodd" d="M14.7387 4.375C12.6446 4.375 10.947 6.07259 10.947 8.16667V8.45833H18.5304V8.16667C18.5304 6.07259 16.8328 4.375 14.7387 4.375ZM20.2804 8.45833V8.16667C20.2804 5.10609 17.7993 2.625 14.7387 2.625C11.6781 2.625 9.19705 5.10609 9.19705 8.16667V8.45833H8.86039C7.2063 8.45833 5.82333 9.71586 5.6665 11.3625L4.77762 20.6958C4.59823 22.5794 6.07941 24.2083 7.9715 24.2083H21.5059C23.398 24.2083 24.8792 22.5794 24.6998 20.6958L23.8109 11.3625C23.6541 9.71586 22.2711 8.45833 20.617 8.45833H20.2804ZM8.86039 10.2083C8.10853 10.2083 7.4799 10.7799 7.40862 11.5284L6.51973 20.8617C6.43819 21.7179 7.11146 22.4583 7.9715 22.4583H21.5059C22.366 22.4583 23.0392 21.7179 22.9577 20.8617L22.0688 11.5284C21.9975 10.7799 21.3689 10.2083 20.617 10.2083H8.86039ZM10.072 11.9584C10.5553 11.9584 10.947 12.3501 10.947 12.8334V12.845C10.947 13.3283 10.5553 13.72 10.072 13.72C9.5888 13.72 9.19705 13.3283 9.19705 12.845V12.8334C9.19705 12.3501 9.5888 11.9584 10.072 11.9584ZM19.4054 11.9584C19.8886 11.9584 20.2804 12.3501 20.2804 12.8334V12.845C20.2804 13.3283 19.8886 13.72 19.4054 13.72C18.9221 13.72 18.5304 13.3283 18.5304 12.845V12.8334C18.5304 12.3501 18.9221 11.9584 19.4054 11.9584Z"/>
</svg>
