<svg width="16" height="16" viewBox="0 0 16 16" xmlns="http://www.w3.org/2000/svg">
<path fill-rule="evenodd" clip-rule="evenodd" d="M1.5 5.33333C1.5 4.32081 2.32081 3.5 3.33333 3.5H12.6667C13.6792 3.5 14.5 4.32081 14.5 5.33333V10.6667C14.5 11.6792 13.6792 12.5 12.6667 12.5H3.33333C2.32081 12.5 1.5 11.6792 1.5 10.6667V5.33333ZM13.5 9.5V6.5H9.33333C8.50491 6.5 7.83333 7.17157 7.83333 8C7.83333 8.82843 8.50491 9.5 9.33333 9.5H13.5ZM13.5 5.5H9.33333C7.95262 5.5 6.83333 6.61929 6.83333 8C6.83333 9.38071 7.95262 10.5 9.33333 10.5H13.5V10.6667C13.5 11.1269 13.1269 11.5 12.6667 11.5H3.33333C2.8731 11.5 2.5 11.1269 2.5 10.6667V5.33333C2.5 4.8731 2.8731 4.5 3.33333 4.5H12.6667C13.1269 4.5 13.5 4.8731 13.5 5.33333V5.5ZM9.33333 7.50001C9.60948 7.50001 9.83333 7.72387 9.83333 8.00001V8.00667C9.83333 8.28282 9.60948 8.50667 9.33333 8.50667C9.05719 8.50667 8.83333 8.28282 8.83333 8.00667V8.00001C8.83333 7.72387 9.05719 7.50001 9.33333 7.50001Z"/>
</svg>
