<svg width="53" height="53" viewBox="0 0 53 53" fill="none" xmlns="http://www.w3.org/2000/svg">
<path d="M45.1319 3.78688C45.5776 4.10628 45.7273 4.54102 45.6697 5.0778C45.6386 5.36837 45.6752 5.66559 45.6597 5.95949C45.6331 6.44303 45.2284 6.81012 44.7549 6.79681C44.2992 6.78461 43.9134 6.42307 43.8956 5.95838C43.879 5.51809 43.8258 5.06227 43.9134 4.63973C43.9777 4.33363 44.2449 4.06857 44.4223 3.78577C44.6585 3.78577 44.8957 3.78577 45.1319 3.78577V3.78688Z" fill="#5D3A8E"/>
<path d="M49.2133 8.48923C48.9793 8.97499 48.5935 9.16131 48.0613 9.11473C47.7397 9.08701 47.4126 9.11806 47.0889 9.10697C46.5744 9.09033 46.1908 8.68997 46.2041 8.19977C46.2163 7.724 46.5899 7.35358 47.09 7.33805C47.4137 7.32807 47.7408 7.35912 48.0624 7.33029C48.5946 7.28371 48.9804 7.47003 49.2144 7.95579V8.48812L49.2133 8.48923Z" fill="#5D3A8E"/>
<path d="M26.5356 42.7208C29.5825 42.5944 32.4065 41.8203 34.9955 40.2222C35.7107 39.7808 36.2229 39.8218 36.5312 40.3486C36.8228 40.8488 36.621 41.3334 35.9446 41.7515C25.5555 48.1718 11.9076 42.5445 9.05808 30.6645C6.75295 21.0557 12.7015 11.3738 22.3334 9.05923C32.2036 6.68699 42.0606 12.9863 44.0675 22.981C45.0077 27.6645 44.1451 32.0419 41.647 36.1043C41.3199 36.6355 40.9274 36.7986 40.4695 36.6167C40.0615 36.4548 39.8131 36.0444 39.914 35.623C39.9639 35.4145 40.0859 35.2171 40.2012 35.0307C41.8377 32.3901 42.6349 29.5088 42.6216 26.4124C42.5895 18.5681 36.8993 11.8784 29.1989 10.6052C20.7966 9.21671 12.88 14.3715 10.841 22.6594C8.66779 31.4896 14.1462 40.2588 22.9521 42.204C24.1274 42.4635 25.3415 42.5523 26.5367 42.7208H26.5356Z" fill="#5D3A8E"/>
<path d="M26.7418 35.5055C24.0132 35.5055 21.8244 33.3883 21.6759 30.6035C21.6426 29.9891 21.9963 29.5477 22.5352 29.5289C23.043 29.5111 23.4499 29.9159 23.4676 30.5048C23.4931 31.3577 23.787 32.0963 24.3846 32.6963C25.3348 33.649 26.4802 33.9528 27.7575 33.5303C29.0514 33.1022 29.7921 32.1728 29.9828 30.8154C30.0027 30.669 30.0171 30.5215 30.036 30.3751C30.1003 29.8638 30.4773 29.5134 30.943 29.53C31.4253 29.5466 31.8178 29.9459 31.8122 30.4693C31.8011 31.646 31.4264 32.7052 30.6802 33.6146C29.6646 34.8512 28.3418 35.4722 26.7418 35.5066V35.5055Z" fill="#5D3A8E"/>
<path d="M23.298 23.1763C23.2925 23.6698 22.9698 24.0557 22.5241 24.1045C21.9986 24.1622 21.6194 23.8794 21.5251 23.336C21.4641 22.9877 21.3544 22.6827 20.9397 22.6916C20.5505 22.6994 20.4474 22.9944 20.3875 23.3238C20.2877 23.8794 19.9263 24.1567 19.3985 24.1045C18.9361 24.0591 18.6057 23.6565 18.6113 23.143C18.6246 21.9097 19.7112 20.8872 20.9929 20.9005C22.2436 20.9138 23.3124 21.9685 23.298 23.1752V23.1763Z" fill="#5D3A8E"/>
<path d="M34.8469 23.1341C34.8535 23.6775 34.5586 24.0546 34.0885 24.1045C33.5496 24.1622 33.1471 23.855 33.0773 23.2916C33.0329 22.9322 32.8855 22.6871 32.5096 22.6938C32.157 22.7005 32.024 22.9378 31.9763 23.2783C31.8931 23.8716 31.474 24.1799 30.9274 24.1034C30.4573 24.0369 30.1568 23.6065 30.1978 23.0576C30.2943 21.7733 31.3332 20.8617 32.6515 20.9049C33.8457 20.9448 34.8336 21.9474 34.848 23.1341H34.8469Z" fill="#5D3A8E"/>
<path d="M41.8355 9.10922C41.6137 9.10922 41.3919 9.12031 41.1702 9.107C40.6757 9.07817 40.3297 8.69222 40.3408 8.19648C40.3519 7.72403 40.6967 7.35805 41.1791 7.34141C41.6215 7.32588 42.0661 7.32477 42.5085 7.34141C42.9775 7.35915 43.3389 7.74621 43.3489 8.20535C43.3589 8.68113 42.9886 9.08039 42.4996 9.107C42.279 9.1192 42.0561 9.10922 41.8343 9.10922H41.8355Z" fill="#5D3A8E"/>
<path d="M7.33503 41.787C7.33503 41.5796 7.32506 41.3722 7.33725 41.166C7.36608 40.6902 7.7353 40.3486 8.20985 40.3442C8.68552 40.3397 9.07802 40.6758 9.1002 41.146C9.12237 41.6029 9.12016 42.0632 9.1002 42.5201C9.08135 42.9881 8.68996 43.3474 8.22982 43.353C7.75416 43.3596 7.35943 42.9859 7.33614 42.4968C7.32506 42.2606 7.33392 42.0244 7.33392 41.787H7.33503Z" fill="#5D3A8E"/>
<path d="M5.28048 43.8942C5.51665 43.8942 5.75504 43.8798 5.9901 43.8975C6.44913 43.9319 6.80504 44.3389 6.79507 44.7958C6.7862 45.2372 6.44027 45.6343 5.99898 45.6576C5.52775 45.682 5.05208 45.6809 4.58086 45.6576C4.11185 45.6343 3.77921 45.2372 3.78586 44.7604C3.79252 44.2868 4.13734 43.9219 4.61522 43.8953C4.83587 43.8831 5.05873 43.8931 5.28048 43.8931V43.8942Z" fill="#5D3A8E"/>
<path d="M45.6619 11.152C45.6619 11.3738 45.6718 11.5956 45.6596 11.8175C45.633 12.3165 45.255 12.6659 44.7604 12.6592C44.287 12.6526 43.9122 12.3088 43.8945 11.8319C43.8767 11.3894 43.8779 10.9446 43.8945 10.5021C43.9111 10.0142 44.3158 9.64262 44.7915 9.65039C45.2516 9.65815 45.6308 10.0186 45.6596 10.4877C45.673 10.7084 45.6619 10.9313 45.6619 11.1531V11.152Z" fill="#5D3A8E"/>
<path d="M9.10688 47.7271C9.10688 47.9345 9.11464 48.1408 9.10577 48.3482C9.0847 48.855 8.72214 49.2099 8.23095 49.2143C7.73644 49.2188 7.35614 48.8683 7.33951 48.367C7.3251 47.9245 7.32288 47.4798 7.34062 47.0373C7.35947 46.5693 7.75086 46.2111 8.21211 46.2055C8.67114 46.2 9.0703 46.556 9.10356 47.0184C9.1202 47.2536 9.10688 47.4909 9.10688 47.7271C9.10688 47.7271 9.10688 47.7271 9.10799 47.7271H9.10688Z" fill="#5D3A8E"/>
<path d="M11.1348 45.6642C10.9131 45.6642 10.6902 45.6764 10.4696 45.662C10.005 45.6309 9.64685 45.2395 9.64685 44.7803C9.64685 44.3212 10.0039 43.9197 10.4685 43.8997C10.9253 43.8798 11.3854 43.8798 11.8422 43.8997C12.3157 43.9197 12.6549 44.3045 12.6561 44.7792C12.6561 45.2539 12.3168 45.631 11.8444 45.6631C11.6094 45.6786 11.3721 45.6653 11.1348 45.6653V45.6642Z" fill="#5D3A8E"/>
<path d="M38.5225 39.457C38.0302 39.4592 37.6133 39.0511 37.6155 38.5698C37.6177 38.0995 38.0413 37.6748 38.5202 37.6648C39.0247 37.6537 39.4339 38.0363 39.445 38.5298C39.456 39.0222 39.0247 39.4559 38.5225 39.457Z" fill="#5D3A8E"/>
</svg>
