<svg width="130" height="49" viewBox="0 0 130 49" xmlns="http://www.w3.org/2000/svg">
<g clip-path="url(#clip0_155_524)">
<path fill-rule="evenodd" clip-rule="evenodd" d="M7.08767 0.821018L2.4464 0.812619C2.90185 1.24763 3.25152 1.91913 3.25152 2.87357V9.78378H4.89428C4.92852 9.78378 6.19487 9.78378 7.52968 10.4337C8.86448 11.0837 10.1993 12.4863 10.1993 15.0862V15.4967H9.78858C9.75436 15.4967 9.10406 15.4967 8.38531 15.1546C7.66658 14.8125 6.94784 13.9915 6.94784 12.6232C6.94784 11.6995 6.57135 11.2548 6.12641 10.9811C5.71571 10.6732 5.1681 10.6048 4.99696 10.6048H4.92852H4.89428H3.25152V29.7619V30.1383H6.87212e-05V29.7619V10.6048L0 9.78378L6.87212e-05 0.808192V0.410508V0H0.410778H7.08767C7.09437 0.00671149 7.14852 0.0121063 7.24129 0.021351C7.62142 0.0592271 8.65012 0.161728 9.72305 0.684182C11.0237 1.33415 12.3927 2.73673 12.3927 5.30241V5.71292H11.982C11.9478 5.71292 11.2632 5.71292 10.5787 5.37082C9.85995 5.02874 9.10698 4.24193 9.10698 2.87357C9.10698 1.9157 8.7305 1.47099 8.31978 1.19732C7.90468 0.941989 7.42999 0.865321 7.20145 0.82841L7.15611 0.821018H7.08767ZM17.8056 9.85222H17.7371C17.429 9.85222 16.1969 9.92064 14.9305 10.639C14.5198 10.1943 13.8354 9.85222 12.9112 9.85222H12.5005V10.2627V15.1204V15.5309V30.2066H15.752V12.6915C15.752 11.6311 16.2312 11.1864 16.7445 10.9127C17.0183 10.7759 17.2922 10.7074 17.4975 10.7074C17.5659 10.6732 17.6686 10.6732 17.7371 10.6732H17.8056H17.8739C18.0793 10.6732 18.5927 10.7417 19.0376 11.0153C19.4483 11.3232 19.8248 11.7338 19.8248 12.6915C19.8248 14.06 20.5778 14.8468 21.2965 15.1888C21.9811 15.5309 22.6656 15.5309 22.6998 15.5309H23.1105V15.1546C23.1105 12.5548 21.7414 11.1522 20.4409 10.5022C19.1061 9.85222 17.8397 9.85222 17.8056 9.85222ZM29.335 9.85222C29.3693 9.85222 30.6356 9.85222 31.9705 10.5022C33.271 11.1522 34.64 12.5548 34.64 15.1546C34.64 17.7204 33.271 19.1229 31.9705 19.7728C30.6356 20.4229 29.3693 20.4229 29.335 20.4229V19.6019H29.4035H29.643C29.8484 19.5676 30.1222 19.4992 30.3618 19.3623C30.8752 19.0887 31.3886 18.644 31.3886 17.5835V12.6915C31.3886 11.7338 31.0122 11.3232 30.5672 11.0153C30.1222 10.7417 29.6089 10.6732 29.4035 10.6732H29.335H29.2666C29.1981 10.6732 29.1298 10.6732 29.0271 10.7074L28.9681 10.7171C28.7712 10.7489 28.5256 10.7886 28.3083 10.9127C27.7949 11.1864 27.2815 11.6311 27.2815 12.6915V27.3673C27.2815 28.291 27.658 28.7357 28.103 29.0093C28.5479 29.3172 29.0613 29.3856 29.2666 29.3856H29.335H29.4035C29.472 29.3856 29.5404 29.3856 29.643 29.3514C29.8484 29.3172 30.1222 29.2488 30.3618 29.1462C30.8752 28.8724 31.3886 28.4277 31.3886 27.3673C31.3886 25.999 32.1073 25.2121 32.8261 24.87C33.5449 24.4937 34.1951 24.4937 34.2293 24.4937H34.64V24.9042C34.64 27.5041 33.271 28.9067 31.9705 29.5567C30.6356 30.2066 29.3693 30.2066 29.335 30.2066C29.3008 30.2066 28.0345 30.2066 26.6996 29.5567C25.3991 28.9067 24.0643 27.5041 24.0643 24.9042V15.1546C24.0643 12.5548 25.3991 11.1522 26.6996 10.5022C28.0345 9.85222 29.3008 9.85222 29.335 9.85222ZM40.6774 10.9127C40.8948 10.7886 41.1403 10.7489 41.3373 10.7171L41.3961 10.7074C41.4988 10.6732 41.5673 10.6732 41.6357 10.6732H41.7042H41.7727C41.978 10.6732 42.4914 10.7417 42.9363 11.0153C43.3812 11.3232 43.7578 11.7338 43.7578 12.6915C43.7236 14.06 44.4765 14.8468 45.1953 15.1888C45.9139 15.5309 46.5643 15.5309 46.5985 15.5309H47.0092V15.1546C47.0092 12.5548 45.6402 11.1522 44.3396 10.5022C43.0048 9.85222 41.7385 9.85222 41.7042 9.85222C41.67 9.85222 40.4037 9.85222 39.0688 10.5022C37.7683 11.1522 36.3992 12.5548 36.3992 15.1546C36.3992 17.7204 37.7683 19.1229 39.0688 19.7728C40.4037 20.4229 41.67 20.4229 41.7042 20.4229H41.7727L41.818 20.4302C42.0465 20.4671 42.5213 20.5438 42.9363 20.7991C43.3812 21.0728 43.7578 21.5175 43.7578 22.4754V27.3673C43.7578 28.4277 43.2444 28.8724 42.731 29.1462C42.4914 29.2488 42.2176 29.3172 42.0122 29.3514C41.9095 29.3856 41.8411 29.3856 41.7727 29.3856H41.7042H41.6357C41.4303 29.3856 40.9171 29.3172 40.472 29.0093C40.0271 28.7357 39.6507 28.291 39.6507 27.3673C39.6849 25.999 38.932 25.2121 38.2132 24.87C37.4944 24.4937 36.8442 24.4937 36.8099 24.4937H36.3992V24.9042C36.3992 27.5041 37.7683 28.9067 39.0688 29.5567C40.4037 30.2066 41.67 30.2066 41.7042 30.2066C41.7385 30.2066 43.0048 30.2066 44.3396 29.5567C45.6402 28.9067 47.0092 27.5041 47.0092 24.9042C47.0092 22.3386 45.6402 20.936 44.3396 20.286C43.2667 19.7636 42.238 19.6611 41.8578 19.6232C41.7651 19.6139 41.7109 19.6085 41.7042 19.6019H41.6357C41.4303 19.6019 40.9171 19.5334 40.472 19.2597C40.0271 18.9518 39.6507 18.5414 39.6507 17.5835V12.6915C39.6507 11.6311 40.164 11.1864 40.6774 10.9127ZM48.8654 0.0684173H49.2762C50.6452 0.0684173 51.4323 0.821018 51.7747 1.5052C52.1169 2.22359 52.1169 2.87357 52.1169 2.90777V30.2066H48.8654V0.478927V0.0684173ZM54.1705 9.85222C54.2047 9.85222 55.471 9.85222 56.7715 10.5022C58.1064 11.1522 59.4754 12.5548 59.4754 15.1546V30.2066H56.1898V12.6915C56.1898 11.7338 55.8132 11.3232 55.4025 11.0153C54.9576 10.7417 54.4442 10.6732 54.2389 10.6732H54.1705V10.2627V9.85222ZM78.1301 0.71839C76.7952 0.0684173 75.5289 0.0684173 75.4947 0.0684173V0.478927V0.889435H75.5632C75.7684 0.889435 76.2818 0.957854 76.7269 1.26574C77.1376 1.53941 77.514 1.98413 77.514 2.90777V27.3673C77.514 28.4277 77.0349 28.8724 76.5215 29.1462C76.2818 29.2488 76.0081 29.3172 75.8027 29.3514C75.7001 29.3856 75.6316 29.3856 75.5632 29.3856H75.4947V30.2066C75.5289 30.2066 76.7952 30.2066 78.1301 29.5567C79.4307 28.9067 80.7997 27.5041 80.7997 24.9042V5.37082C80.7997 2.77094 79.4307 1.36836 78.1301 0.71839ZM70.6004 0.0684173H70.1897V0.478927V30.2066H73.4411V2.90777C73.4411 2.87357 73.4411 2.22359 73.0989 1.5052C72.7567 0.821018 71.9694 0.0684173 70.6004 0.0684173ZM88.2275 9.85222H88.2959C88.3301 9.85222 89.5965 9.85222 90.9313 10.5022C92.2319 11.1522 93.601 12.5548 93.601 15.1546V15.5309H93.1903C93.1561 15.5309 92.4715 15.5309 91.7869 15.1888C91.0683 14.8468 90.3152 14.06 90.3152 12.6915C90.3152 11.7338 89.9388 11.3232 89.5281 11.0153C89.0832 10.7417 88.5698 10.6732 88.3644 10.6732H88.2959H88.2275C88.1591 10.6732 88.0564 10.6732 87.9879 10.7074C87.7826 10.7074 87.5087 10.7759 87.235 10.9127C86.7216 11.1864 86.2424 11.6311 86.2424 12.6915V30.2066H82.9909V15.5309V15.1204V10.2627V9.85222H83.4016C84.3257 9.85222 85.0103 10.1943 85.4209 10.639C86.6874 9.92064 87.9194 9.85222 88.2275 9.85222ZM102.461 10.5022C101.126 9.85222 99.8597 9.85222 99.8255 9.85222C99.7913 9.85222 98.5249 9.85222 97.1901 10.5022C95.8895 11.1522 94.5547 12.5548 94.5547 15.1546V24.9042C94.5547 27.5041 95.8895 28.9067 97.1901 29.5567C98.5249 30.2066 99.7913 30.2066 99.8255 30.2066C99.8597 30.2066 101.126 30.2066 102.461 29.5567C103.761 28.9067 105.13 27.5041 105.13 24.9042V24.4937H104.72C104.686 24.4937 104.035 24.4937 103.317 24.87C102.598 25.2121 101.879 25.999 101.879 27.3673C101.879 28.4277 101.366 28.8724 100.852 29.1462C100.613 29.2488 100.339 29.3172 100.133 29.3514C100.031 29.3856 99.9624 29.3856 99.894 29.3856H99.8255H99.757C99.5517 29.3856 99.0383 29.3172 98.5933 29.0093C98.1484 28.7357 97.7719 28.291 97.7719 27.3673V12.6915C97.7719 11.6311 98.2853 11.1864 98.7987 10.9127C99.016 10.7886 99.2616 10.7489 99.4586 10.7171L99.5175 10.7074C99.6201 10.6732 99.6886 10.6732 99.757 10.6732H99.8255H99.894C100.099 10.6732 100.613 10.7417 101.058 11.0153C101.503 11.3232 101.879 11.7338 101.879 12.6915V17.5835C101.879 18.644 101.366 19.0887 100.852 19.3623C100.613 19.4992 100.339 19.5676 100.133 19.6019H99.894H99.8255V20.4229C99.8597 20.4229 101.126 20.4229 102.461 19.7728C103.761 19.1229 105.13 17.7204 105.13 15.1546C105.13 12.5548 103.761 11.1522 102.461 10.5022ZM111.828 10.7171C111.631 10.7489 111.385 10.7886 111.167 10.9127C110.655 11.1864 110.141 11.6311 110.141 12.6915V17.5835C110.141 18.5414 110.517 18.9518 110.963 19.2597C111.408 19.5334 111.921 19.6019 112.126 19.6019H112.194C112.201 19.6085 112.255 19.6139 112.348 19.6232C112.728 19.6611 113.758 19.7636 114.83 20.286C116.13 20.936 117.499 22.3386 117.499 24.9042C117.499 27.5041 116.13 28.9067 114.83 29.5567C113.495 30.2066 112.229 30.2066 112.194 30.2066C112.161 30.2066 110.894 30.2066 109.56 29.5567C108.259 28.9067 106.89 27.5041 106.89 24.9042V24.4937H107.3C107.335 24.4937 107.985 24.4937 108.704 24.87C109.422 25.2121 110.175 25.999 110.141 27.3673C110.141 28.291 110.517 28.7357 110.963 29.0093C111.408 29.3172 111.921 29.3856 112.126 29.3856H112.194H112.263C112.332 29.3856 112.4 29.3856 112.503 29.3514C112.708 29.3172 112.982 29.2488 113.221 29.1462C113.735 28.8724 114.248 28.4277 114.248 27.3673V22.4754C114.248 21.5175 113.871 21.0728 113.427 20.7991C113.011 20.5438 112.537 20.4671 112.308 20.4302L112.263 20.4229H112.194C112.161 20.4229 110.894 20.4229 109.56 19.7728C108.259 19.1229 106.89 17.7204 106.89 15.1546C106.89 12.5548 108.259 11.1522 109.56 10.5022C110.894 9.85222 112.161 9.85222 112.194 9.85222C112.229 9.85222 113.495 9.85222 114.83 10.5022C116.13 11.1522 117.499 12.5548 117.499 15.1546V15.5309H117.089C117.054 15.5309 116.404 15.5309 115.686 15.1888C114.967 14.8468 114.214 14.06 114.248 12.6915C114.248 11.7338 113.871 11.3232 113.427 11.0153C112.982 10.7417 112.468 10.6732 112.263 10.6732H112.194H112.126C112.058 10.6732 111.99 10.6732 111.887 10.7074L111.828 10.7171ZM123.668 10.9127C123.886 10.7886 124.132 10.7489 124.328 10.7171L124.387 10.7074C124.49 10.6732 124.558 10.6732 124.627 10.6732H124.695H124.763C124.969 10.6732 125.482 10.7417 125.927 11.0153C126.372 11.3232 126.749 11.7338 126.749 12.6915C126.714 14.06 127.467 14.8468 128.187 15.1888C128.905 15.5309 129.555 15.5309 129.589 15.5309H130V15.1546C130 12.5548 128.631 11.1522 127.331 10.5022C125.996 9.85222 124.73 9.85222 124.695 9.85222C124.661 9.85222 123.395 9.85222 122.059 10.5022C120.759 11.1522 119.39 12.5548 119.39 15.1546C119.39 17.7204 120.759 19.1229 122.059 19.7728C123.395 20.4229 124.661 20.4229 124.695 20.4229H124.763L124.809 20.4302C125.037 20.4671 125.512 20.5438 125.927 20.7991C126.372 21.0728 126.749 21.5175 126.749 22.4754V27.3673C126.749 28.4277 126.235 28.8724 125.722 29.1462C125.483 29.2488 125.208 29.3172 125.003 29.3514C124.901 29.3856 124.833 29.3856 124.763 29.3856H124.695H124.627C124.421 29.3856 123.908 29.3172 123.463 29.0093C123.018 28.7357 122.642 28.291 122.642 27.3673C122.676 25.999 121.923 25.2121 121.204 24.87C120.485 24.4937 119.835 24.4937 119.8 24.4937H119.39V24.9042C119.39 27.5041 120.759 28.9067 122.059 29.5567C123.395 30.2066 124.661 30.2066 124.695 30.2066C124.73 30.2066 125.996 30.2066 127.331 29.5567C128.631 28.9067 130 27.5041 130 24.9042C130 22.3386 128.631 20.936 127.331 20.286C126.257 19.7636 125.229 19.6611 124.849 19.6232C124.756 19.6139 124.701 19.6085 124.695 19.6019H124.627C124.421 19.6019 123.908 19.5334 123.463 19.2597C123.018 18.9518 122.642 18.5414 122.642 17.5835V12.6915C122.642 11.6311 123.154 11.1864 123.668 10.9127Z"/>
<path d="M99.3774 48.2174C98.8189 48.2174 98.2223 48.0912 97.7909 47.902C97.7654 47.8893 97.7019 47.9146 97.6892 47.9776L97.5242 48.5203C97.4989 48.596 97.5242 48.6592 97.575 48.6844C98.1208 48.8863 98.7555 48.9999 99.3774 48.9999C101.103 48.9999 101.979 48.2932 101.979 46.4254C101.979 44.7974 101.472 44.1285 99.7327 43.914C98.3365 43.7373 98.2732 43.6237 98.2732 42.3617C98.2732 40.9987 98.2732 40.5949 99.8342 40.5949C100.393 40.5949 100.989 40.7211 101.421 40.9104C101.446 40.9231 101.51 40.8978 101.522 40.8346L101.687 40.292C101.713 40.2163 101.687 40.1532 101.637 40.128C101.091 39.9261 100.456 39.8125 99.8342 39.8125C98.1082 39.8125 97.3593 40.5066 97.3593 42.387C97.3593 44.0023 97.905 44.4945 99.6312 44.6964C101.027 44.8605 101.078 45.1887 101.078 46.4381C101.078 47.801 100.926 48.2174 99.3774 48.2174Z"/>
<path d="M111.136 40.1407C111.136 40.0775 111.098 40.0271 111.047 40.0271H110.374C110.323 40.0271 110.286 40.0775 110.286 40.1407V43.7626H107.214V40.1407C107.214 40.0775 107.176 40.0271 107.125 40.0271H106.452C106.402 40.0271 106.363 40.0775 106.363 40.1407V48.7097C106.363 48.7727 106.402 48.8233 106.452 48.8233H107.125C107.176 48.8233 107.214 48.7727 107.214 48.7097V44.5199H110.286V48.7097C110.286 48.7727 110.323 48.8233 110.374 48.8233H111.047C111.098 48.8233 111.136 48.7727 111.136 48.7097V40.1407Z"/>
<path d="M118.109 48.167C116.637 48.167 116.294 47.8137 116.294 44.343C116.294 40.9861 116.637 40.6328 118.109 40.6328C119.582 40.6328 119.911 40.9861 119.911 44.343C119.911 47.8137 119.582 48.167 118.109 48.167ZM118.109 48.9999C119.886 48.9999 120.838 48.1796 120.838 44.343C120.838 40.6328 119.886 39.8125 118.109 39.8125C116.32 39.8125 115.367 40.6328 115.367 44.343C115.367 48.1796 116.32 48.9999 118.109 48.9999Z"/>
<path d="M125.973 40.7842H128.029C128.727 40.7842 128.893 41.1124 128.893 42.5259C128.893 44.0024 128.702 44.3179 128.029 44.3179H125.973V40.7842ZM125.973 45.0751H128.029C129.362 45.0751 129.806 44.0907 129.806 42.5259C129.806 40.8853 129.159 40.0271 128.029 40.0271H125.212C125.161 40.0271 125.123 40.0775 125.123 40.1407V48.7097C125.123 48.7727 125.161 48.8233 125.212 48.8233H125.884C125.935 48.8233 125.973 48.7727 125.973 48.7097V45.0751Z"/>
<path fill-rule="evenodd" clip-rule="evenodd" d="M89.1058 44.6875H1.50122V44.125H89.1058V44.6875Z"/>
</g>
<defs>
<clipPath id="clip0_155_524">
<rect width="130" height="49" fill="white"/>
</clipPath>
</defs>
</svg>
