<svg width="19" height="20" viewBox="0 0 19 20" xmlns="http://www.w3.org/2000/svg">
<g id="clarity:new-line">
<path id="Vector" d="M17.7388 12.6386L15.6464 9.9998L17.6978 7.41377C17.8099 7.2723 17.8806 7.10085 17.9015 6.91951C17.9224 6.73817 17.8926 6.55446 17.8157 6.38992C17.7378 6.20549 17.6085 6.04893 17.4442 5.93998C17.28 5.83103 17.088 5.77457 16.8926 5.77771H0.99489C0.866255 5.77562 0.738479 5.79962 0.61886 5.84835C0.499241 5.89708 0.390121 5.96959 0.297734 6.06173C0.205347 6.15386 0.131502 6.26383 0.0804159 6.38534C0.0293301 6.50685 0.00200458 6.63752 0 6.7699L0 13.235C0.00539022 13.5014 0.11308 13.7548 0.299518 13.9397C0.485956 14.1247 0.735972 14.2261 0.99489 14.2219H16.949C17.1379 14.2251 17.3237 14.1727 17.4846 14.0708C17.6454 13.9688 17.7745 13.8217 17.8567 13.6466C17.9305 13.484 17.9586 13.3034 17.9377 13.1253C17.9169 12.9471 17.848 12.7785 17.7388 12.6386ZM1.02566 13.1664V6.83324H16.8106L14.3285 9.96286L16.8465 13.1664H1.02566Z"/>
<path id="Vector_2" d="M4.74116 10.6457L3.17986 8.41675H2.63867V11.5834H3.17986V9.35957L4.74116 11.5834H5.27756V8.41675H4.74116V10.6457Z"/>
<path id="Vector_3" d="M6.3335 11.5834H8.44461V11.0608H6.84542V10.2358H8.29058V9.70801H6.84542V8.94453H8.44461V8.41675H6.3335V11.5834Z"/>
<path id="Vector_4" d="M12.409 10.6867L11.6601 8.41675H11.0343L10.2802 10.6867L9.60311 8.41675H8.97217L9.97757 11.5834H10.547L11.3472 9.23147L12.1423 11.5834H12.7219L13.7222 8.41675H13.0912L12.409 10.6867Z"/>
</g>
</svg>
