<svg width="39" height="39" viewBox="0 0 39 39" fill="none" xmlns="http://www.w3.org/2000/svg">
<g clip-path="url(#clip0_160_101)">
<path d="M29.4522 22.4045L23.87 19.1551L20.8496 7.88279L12.5288 10.1123L13.3365 13.1267L10.9478 11.7475L10.6449 10.6171C10.5103 10.1148 10.5809 9.62468 10.8567 9.14693C11.1325 8.66918 11.5216 8.363 12.024 8.22839L20.3448 5.99884C20.8681 5.85862 21.362 5.92259 21.8265 6.19076C22.291 6.45893 22.5933 6.85467 22.7335 7.37799L25.4258 17.4257L28.9474 20.5205L29.4522 22.4045ZM34.9517 30.1183L24.0829 23.8432L21.9164 24.4237L23.6832 31.0175L22.9936 32.2119L21.7992 31.5223L20.0324 24.9285L12.3396 26.9898L11.8348 25.1058L13.3372 20.6649L12.3864 17.1168L5.06095 12.8874L6.04934 11.1754L35.9171 28.4462L34.9517 30.1183ZM14.1898 24.4748L21.7256 22.4556L14.7584 18.4331L15.3894 20.788L14.1898 24.4748Z" fill="#1C1C1C"/>
</g>
<defs>
<clipPath id="clip0_160_101">
<rect width="31.2065" height="31.2065" fill="white" transform="translate(0.455475 8.63599) rotate(-15)"/>
</clipPath>
</defs>
</svg>
