<svg width="32" height="32" viewBox="0 0 32 32" fill="none" xmlns="http://www.w3.org/2000/svg">
<path fill-rule="evenodd" clip-rule="evenodd" d="M21.414 6H29L30 7V25L29 26H3L2 25V7L3 6H10.586L12.292 4.292L13 4H19L19.708 4.292L21.414 6ZM4 24H28V8H21L20.292 7.708L18.586 6H13.414L11.708 7.708L11 8H4V24ZM7 10C6.80222 10 6.60888 10.0586 6.44443 10.1685C6.27998 10.2784 6.15181 10.4346 6.07612 10.6173C6.00043 10.8 5.98063 11.0011 6.01922 11.1951C6.0578 11.3891 6.15304 11.5673 6.29289 11.7071C6.43275 11.847 6.61093 11.9422 6.80491 11.9808C6.99889 12.0194 7.19996 11.9996 7.38268 11.9239C7.56541 11.8482 7.72159 11.72 7.83147 11.5556C7.94135 11.3911 8 11.1978 8 11C8 10.7348 7.89464 10.4804 7.70711 10.2929C7.51957 10.1054 7.26522 10 7 10ZM16 12C16.7911 12 17.5645 12.2346 18.2223 12.6741C18.8801 13.1136 19.3928 13.7384 19.6955 14.4693C19.9983 15.2002 20.0775 16.0044 19.9231 16.7804C19.7688 17.5563 19.3878 18.269 18.8284 18.8284C18.269 19.3878 17.5563 19.7688 16.7804 19.9231C16.0044 20.0775 15.2002 19.9983 14.4693 19.6955C13.7384 19.3928 13.1137 18.8801 12.6741 18.2223C12.2346 17.5645 12 16.7911 12 16C12 14.9391 12.4214 13.9217 13.1716 13.1716C13.9217 12.4214 14.9391 12 16 12ZM16 10C14.8133 10 13.6533 10.3519 12.6666 11.0112C11.6799 11.6705 10.9109 12.6075 10.4567 13.7039C10.0026 14.8003 9.88378 16.0067 10.1153 17.1705C10.3468 18.3344 10.9182 19.4035 11.7574 20.2426C12.5965 21.0818 13.6656 21.6532 14.8295 21.8847C15.9933 22.1162 17.1997 21.9974 18.2961 21.5433C19.3925 21.0892 20.3295 20.3201 20.9888 19.3334C21.6481 18.3467 22 17.1867 22 16C22 14.4087 21.3679 12.8826 20.2426 11.7574C19.1174 10.6321 17.5913 10 16 10Z" fill="#A3A3A3"/>
</svg>
