<svg width="22" height="22" viewBox="0 0 22 22" fill="none" xmlns="http://www.w3.org/2000/svg">
<path d="M6.1875 9.625C5.50763 9.625 4.84302 9.4234 4.27773 9.04568C3.71243 8.66796 3.27184 8.1311 3.01167 7.50298C2.75149 6.87485 2.68342 6.18369 2.81605 5.51688C2.94869 4.85007 3.27608 4.23757 3.75682 3.75682C4.23757 3.27608 4.85007 2.94869 5.51688 2.81605C6.18369 2.68342 6.87485 2.75149 7.50298 3.01167C8.1311 3.27184 8.66796 3.71243 9.04568 4.27773C9.4234 4.84302 9.625 5.50763 9.625 6.1875C9.62409 7.0989 9.26163 7.97272 8.61718 8.61718C7.97272 9.26163 7.0989 9.62409 6.1875 9.625ZM6.1875 4.125C5.77958 4.125 5.38081 4.24597 5.04164 4.4726C4.70246 4.69923 4.43811 5.02134 4.282 5.39822C4.12589 5.77509 4.08505 6.18979 4.16463 6.58988C4.24421 6.98996 4.44065 7.35746 4.72909 7.64591C5.01754 7.93436 5.38504 8.13079 5.78513 8.21037C6.18521 8.28995 6.59991 8.24911 6.97679 8.093C7.35366 7.9369 7.67578 7.67254 7.90241 7.33337C8.12904 6.99419 8.25 6.59543 8.25 6.1875C8.24946 5.64066 8.03198 5.11637 7.64531 4.7297C7.25863 4.34302 6.73434 4.12555 6.1875 4.125ZM2.75 18.2779L18.2772 2.75L19.25 3.72281L3.72213 19.25L2.75 18.2779ZM15.8125 19.25C15.1326 19.25 14.468 19.0484 13.9027 18.6707C13.3374 18.293 12.8968 17.7561 12.6367 17.128C12.3765 16.4999 12.3084 15.8087 12.4411 15.1419C12.5737 14.4751 12.9011 13.8626 13.3818 13.3818C13.8626 12.9011 14.4751 12.5737 15.1419 12.4411C15.8087 12.3084 16.4999 12.3765 17.128 12.6367C17.7561 12.8968 18.293 13.3374 18.6707 13.9027C19.0484 14.468 19.25 15.1326 19.25 15.8125C19.2491 16.7239 18.8866 17.5977 18.2422 18.2422C17.5977 18.8866 16.7239 19.2491 15.8125 19.25ZM15.8125 13.75C15.4046 13.75 15.0058 13.871 14.6666 14.0976C14.3275 14.3242 14.0631 14.6463 13.907 15.0232C13.7509 15.4001 13.71 15.8148 13.7896 16.2149C13.8692 16.615 14.0656 16.9825 14.3541 17.2709C14.6425 17.5594 15.01 17.7558 15.4101 17.8354C15.8102 17.915 16.2249 17.8741 16.6018 17.718C16.9787 17.5619 17.3008 17.2975 17.5274 16.9584C17.754 16.6192 17.875 16.2204 17.875 15.8125C17.8745 15.2657 17.657 14.7414 17.2703 14.3547C16.8836 13.968 16.3593 13.7505 15.8125 13.75Z" fill="white"/>
</svg>
