<svg width="20" height="20" viewBox="0 0 20 20" fill="none" xmlns="http://www.w3.org/2000/svg">
<path d="M19.1482 9.90283L16.0042 12.9642L16.7482 17.2922C16.8762 18.0415 16.5749 18.7802 15.9589 19.2228C15.3482 19.6708 14.5509 19.7268 13.8789 19.3695L9.99888 17.3295L6.11088 19.3722C5.82288 19.5242 5.50822 19.6042 5.19622 19.6042C4.78822 19.6042 4.38555 19.4762 4.03888 19.2255C3.42555 18.7802 3.12422 18.0415 3.25222 17.2922L3.99355 12.9642L0.84955 9.90283C0.30555 9.37483 0.116217 8.59883 0.350883 7.87616C0.588217 7.15616 1.20155 6.64416 1.95088 6.5375L6.28688 5.9055L8.23088 1.96683C8.56955 1.2895 9.24688 0.868164 9.99888 0.868164H10.0042C10.7589 0.870831 11.4362 1.29216 11.7695 1.9695L13.7135 5.9055L18.0575 6.54016C18.7989 6.64416 19.4122 7.15616 19.6469 7.87616C19.8842 8.59883 19.6949 9.37483 19.1482 9.90283Z" fill="#FF6431"/>
</svg>
