<svg width="24" height="26" viewBox="0 0 24 26" fill="none" xmlns="http://www.w3.org/2000/svg">
<path d="M20.25 4.875H3.75C3.55109 4.875 3.36032 4.9606 3.21967 5.11298C3.07902 5.26535 3 5.47201 3 5.6875C3 5.90299 3.07902 6.10965 3.21967 6.26202C3.36032 6.4144 3.55109 6.5 3.75 6.5H4.5V21.125C4.5 21.556 4.65804 21.9693 4.93934 22.274C5.22064 22.5788 5.60218 22.75 6 22.75H18C18.3978 22.75 18.7794 22.5788 19.0607 22.274C19.342 21.9693 19.5 21.556 19.5 21.125V6.5H20.25C20.4489 6.5 20.6397 6.4144 20.7803 6.26202C20.921 6.10965 21 5.90299 21 5.6875C21 5.47201 20.921 5.26535 20.7803 5.11298C20.6397 4.9606 20.4489 4.875 20.25 4.875ZM18 21.125H6V6.5H18V21.125ZM7.5 2.4375C7.5 2.22201 7.57902 2.01535 7.71967 1.86298C7.86032 1.7106 8.05109 1.625 8.25 1.625H15.75C15.9489 1.625 16.1397 1.7106 16.2803 1.86298C16.421 2.01535 16.5 2.22201 16.5 2.4375C16.5 2.65299 16.421 2.85965 16.2803 3.01202C16.1397 3.1644 15.9489 3.25 15.75 3.25H8.25C8.05109 3.25 7.86032 3.1644 7.71967 3.01202C7.57902 2.85965 7.5 2.65299 7.5 2.4375Z" fill="#C7CBCC"/>
</svg>
