<svg width="24" height="24" viewBox="0 0 24 24" fill="none" xmlns="http://www.w3.org/2000/svg">
<path d="M15.499 11.9999C15.499 13.9329 13.932 15.4999 11.999 15.4999C10.066 15.4999 8.49902 13.9329 8.49902 11.9999C8.49902 10.0669 10.066 8.49988 11.999 8.49988C13.932 8.49988 15.499 10.0669 15.499 11.9999Z" fill="#24292E"/>
<path fill-rule="evenodd" clip-rule="evenodd" d="M11.9992 3.5C8.56725 3.5 5.87465 5.03417 3.94505 6.74062C2.01943 8.44355 0.813551 10.3513 0.32874 11.2012C0.0440664 11.7003 0.0440654 12.2997 0.32874 12.7987C0.813551 13.6487 2.01943 15.5564 3.94505 17.2594C5.87465 18.9658 8.56725 20.5 11.9992 20.5C15.4311 20.5 18.1237 18.9658 20.0532 17.2593C21.9789 15.5564 23.1847 13.6486 23.6695 12.7987C23.9542 12.2996 23.9542 11.7003 23.6695 11.2012C23.1847 10.3512 21.9788 8.44351 20.0532 6.74059C18.1236 5.03415 15.4311 3.5 11.9992 3.5ZM1.63169 11.9444C2.07317 11.1704 3.18324 9.41675 4.93875 7.86426C6.69029 6.31527 9.04402 5 11.9992 5C14.9543 5 17.308 6.31526 19.0595 7.86423C20.815 9.41671 21.9251 11.1704 22.3666 11.9444C22.3797 11.9674 22.383 11.9859 22.383 11.9999C22.383 12.0139 22.3797 12.0325 22.3666 12.0555C21.9251 12.8295 20.815 14.5832 19.0595 16.1357C17.308 17.6847 14.9543 19 11.9992 19C9.04402 19 6.69029 17.6847 4.93875 16.1357C3.18324 14.5832 2.07317 12.8296 1.63169 12.0556C1.61857 12.0326 1.61523 12.014 1.61523 12C1.61523 11.986 1.61857 11.9674 1.63169 11.9444Z" fill="#24292E"/>
</svg>
