<svg width="30" height="31" viewBox="0 0 30 31" fill="none" xmlns="http://www.w3.org/2000/svg">
<g id="Iconly/Light/Buy">
<g id="Buy">
<path id="Stroke 1" d="M3.4375 4.5625L6.0375 5.0125L7.24125 19.3538C7.3375 20.525 8.31625 21.4238 9.49125 21.42H23.1275C24.2488 21.4225 25.2 20.5975 25.3588 19.4875L26.545 11.29C26.6775 10.3737 26.0413 9.52375 25.1263 9.39125C25.0463 9.38 6.455 9.37375 6.455 9.37375" stroke="#27AE60" stroke-width="2" stroke-linecap="round" stroke-linejoin="round"/>
<path id="Stroke 3" d="M17.6562 13.9932H21.1225" stroke="#27AE60" stroke-width="2" stroke-linecap="round" stroke-linejoin="round"/>
<path id="Stroke 5" fill-rule="evenodd" clip-rule="evenodd" d="M8.9427 25.7529C9.31895 25.7529 9.6227 26.0579 9.6227 26.4329C9.6227 26.8092 9.31895 27.1142 8.9427 27.1142C8.56645 27.1142 8.2627 26.8092 8.2627 26.4329C8.2627 26.0579 8.56645 25.7529 8.9427 25.7529Z" fill="#27AE60" stroke="#27AE60" stroke-width="2" stroke-linecap="round" stroke-linejoin="round"/>
<path id="Stroke 7" fill-rule="evenodd" clip-rule="evenodd" d="M23.0433 25.7529C23.4195 25.7529 23.7245 26.0579 23.7245 26.4329C23.7245 26.8092 23.4195 27.1142 23.0433 27.1142C22.667 27.1142 22.3633 26.8092 22.3633 26.4329C22.3633 26.0579 22.667 25.7529 23.0433 25.7529Z" fill="#27AE60" stroke="#27AE60" stroke-width="2" stroke-linecap="round" stroke-linejoin="round"/>
</g>
</g>
</svg>
