<svg width="24" height="24" viewBox="0 0 24 24" fill="none" xmlns="http://www.w3.org/2000/svg">
<path fill-rule="evenodd" clip-rule="evenodd" d="M2.25 6C2.25 5.0335 3.0335 4.25 4 4.25H20C20.9665 4.25 21.75 5.0335 21.75 6V18C21.75 18.9665 20.9665 19.75 20 19.75H4C3.0335 19.75 2.25 18.9665 2.25 18V6ZM4.81066 5.75L11.1161 12.0555C11.6043 12.5436 12.3957 12.5436 12.8839 12.0555L19.1893 5.75H4.81066ZM20.25 6.81066L13.9445 13.1161C12.8706 14.1901 11.1294 14.1901 10.0555 13.1161L3.75 6.81066V18C3.75 18.1381 3.86193 18.25 4 18.25H20C20.1381 18.25 20.25 18.1381 20.25 18V6.81066Z" fill="#FF6431"/>
</svg>
