<svg width="20" height="20" viewBox="0 0 20 20" xmlns="http://www.w3.org/2000/svg">
<path fill-rule="evenodd" clip-rule="evenodd" d="M10 1.75C5.44365 1.75 1.75 5.44365 1.75 10C1.75 14.5563 5.44365 18.25 10 18.25C14.5563 18.25 18.25 14.5563 18.25 10C18.25 5.44365 14.5563 1.75 10 1.75ZM0.25 10C0.25 4.61522 4.61522 0.25 10 0.25C15.3848 0.25 19.75 4.61522 19.75 10C19.75 15.3848 15.3848 19.75 10 19.75C4.61522 19.75 0.25 15.3848 0.25 10ZM6.25 7C6.25 6.58579 6.58579 6.25 7 6.25H7.01C7.42421 6.25 7.76 6.58579 7.76 7C7.76 7.41421 7.42421 7.75 7.01 7.75H7C6.58579 7.75 6.25 7.41421 6.25 7ZM12.25 7C12.25 6.58579 12.5858 6.25 13 6.25H13.01C13.4242 6.25 13.76 6.58579 13.76 7C13.76 7.41421 13.4242 7.75 13.01 7.75H13C12.5858 7.75 12.25 7.41421 12.25 7ZM6.59955 11.5494C6.3509 11.2185 5.88117 11.1516 5.55 11.4C5.21863 11.6485 5.15147 12.1186 5.4 12.45L6 12C5.4 12.45 5.39981 12.4497 5.4 12.45L5.40169 12.4522L5.40395 12.4552L5.41018 12.4634L5.42942 12.488C5.44525 12.508 5.4671 12.535 5.49485 12.5681C5.55031 12.6342 5.62965 12.7247 5.73195 12.8314C5.93593 13.0443 6.23476 13.3254 6.62137 13.6066C7.3917 14.1668 8.54335 14.75 10 14.75C11.4566 14.75 12.6083 14.1668 13.3786 13.6066C13.7652 13.3254 14.0641 13.0443 14.2681 12.8314C14.3704 12.7247 14.4497 12.6342 14.5051 12.5681C14.5329 12.535 14.5547 12.508 14.5706 12.488L14.5898 12.4634L14.596 12.4552L14.5983 12.4522L14.5992 12.451C14.5994 12.4508 14.6 12.45 14 12L14.6 12.45C14.8485 12.1186 14.7814 11.6485 14.45 11.4C14.1188 11.1516 13.649 11.2186 13.4003 11.5496L13.4011 11.5485L13.3945 11.5569C13.3871 11.5662 13.3743 11.5822 13.3562 11.6038C13.3198 11.6471 13.2625 11.7128 13.1851 11.7936C13.0297 11.9557 12.7973 12.1746 12.4964 12.3934C11.8917 12.8332 11.0434 13.25 10 13.25C8.95665 13.25 8.1083 12.8332 7.50363 12.3934C7.20274 12.1746 6.97032 11.9557 6.81493 11.7936C6.73754 11.7128 6.68016 11.6471 6.64382 11.6038C6.62567 11.5822 6.61285 11.5662 6.60549 11.5569L6.59886 11.5485L6.59955 11.5494Z"/>
</svg>
