<svg width="29" height="28" viewBox="0 0 29 28" xmlns="http://www.w3.org/2000/svg">
<path fill-rule="evenodd" clip-rule="evenodd" d="M9.54207 5.54175C7.12611 5.54175 5.11377 7.58204 5.11377 10.1665C5.11377 11.4031 5.58776 12.5829 6.42193 13.448L14.7388 22.0729L23.0556 13.448C23.8898 12.5829 24.3638 11.4031 24.3638 10.1665C24.3638 7.58204 22.3514 5.54175 19.9355 5.54175C18.7715 5.54175 17.6485 6.02097 16.8153 6.88495L15.3686 8.38523C15.2037 8.55625 14.9764 8.65286 14.7388 8.65286C14.5012 8.65286 14.2738 8.55625 14.1089 8.38523L12.6622 6.88495C11.8291 6.02097 10.706 5.54175 9.54207 5.54175ZM3.36377 10.1665C3.36377 6.67607 6.10017 3.79175 9.54207 3.79175C11.1911 3.79175 12.7659 4.4714 13.9219 5.67021L14.7388 6.5173L15.5556 5.67021L16.1679 6.26064L15.5556 5.67021C16.7116 4.4714 18.2864 3.79175 19.9355 3.79175C23.3774 3.79175 26.1138 6.67607 26.1138 10.1665C26.1138 11.8471 25.4703 13.465 24.3153 14.6627L15.3686 23.9408C15.2037 24.1118 14.9764 24.2084 14.7388 24.2084C14.5012 24.2084 14.2738 24.1118 14.1089 23.9408L5.1622 14.6627C4.00725 13.465 3.36377 11.8471 3.36377 10.1665Z"/>
</svg>
