<svg width="28" height="28" viewBox="0 0 28 28" xmlns="http://www.w3.org/2000/svg">
<path fill-rule="evenodd" clip-rule="evenodd" d="M12.1357 4.33425C7.82705 4.33425 4.33419 7.82711 4.33419 12.1358C4.33419 16.4444 7.82705 19.9373 12.1357 19.9373C16.4444 19.9373 19.9372 16.4444 19.9372 12.1358C19.9372 7.82711 16.4444 4.33425 12.1357 4.33425ZM2.60052 12.1358C2.60052 6.86963 6.86957 2.60059 12.1357 2.60059C17.4018 2.60059 21.6709 6.86963 21.6709 12.1358C21.6709 14.4567 20.8416 16.584 19.4633 18.2375L23.7285 22.5027C24.0671 22.8412 24.0671 23.3901 23.7285 23.7286C23.39 24.0671 22.8412 24.0671 22.5027 23.7286L18.2374 19.4633C16.5839 20.8417 14.4566 21.6709 12.1357 21.6709C6.86957 21.6709 2.60052 17.4019 2.60052 12.1358Z"/>
</svg>
