<svg width="29" height="28" viewBox="0 0 29 28" xmlns="http://www.w3.org/2000/svg">
<path fill-rule="evenodd" clip-rule="evenodd" d="M14.7388 4.375C12.6447 4.375 10.9471 6.07259 10.9471 8.16667C10.9471 10.2607 12.6447 11.9583 14.7388 11.9583C16.8329 11.9583 18.5305 10.2607 18.5305 8.16667C18.5305 6.07259 16.8329 4.375 14.7388 4.375ZM9.19712 8.16667C9.19712 5.10609 11.6782 2.625 14.7388 2.625C17.7994 2.625 20.2805 5.10609 20.2805 8.16667C20.2805 11.2272 17.7994 13.7083 14.7388 13.7083C11.6782 13.7083 9.19712 11.2272 9.19712 8.16667ZM4.53046 22.1667C4.53046 19.1061 7.01155 16.625 10.0721 16.625H19.4055C22.466 16.625 24.9471 19.1061 24.9471 22.1667V24.5C24.9471 24.9832 24.5554 25.375 24.0721 25.375C23.5889 25.375 23.1971 24.9832 23.1971 24.5V22.1667C23.1971 20.0726 21.4995 18.375 19.4055 18.375H10.0721C7.97804 18.375 6.28046 20.0726 6.28046 22.1667V24.5C6.28046 24.9832 5.88871 25.375 5.40546 25.375C4.92221 25.375 4.53046 24.9832 4.53046 24.5V22.1667Z"/>
</svg>
