<svg width="16" height="16" viewBox="0 0 16 16" fill="none" xmlns="http://www.w3.org/2000/svg">
<path d="M2.3335 7.33325V9.33325C2.3335 11.8473 2.3335 13.1046 3.11483 13.8853C3.8955 14.6666 5.15283 14.6666 7.66683 14.6666H8.3335C10.8475 14.6666 12.1048 14.6666 12.8855 13.8853C13.6668 13.3071 13.6668 10.1133 13.6668 9.33325V7.33325" stroke="#1C1F22" stroke-linecap="round"/>
<path d="M6.33351 1.33325H9.66684M6.33351 1.33325L5.89884 5.67792C5.87021 5.9711 5.90324 6.26702 5.99581 6.54667C6.08838 6.82632 6.23845 7.0835 6.43636 7.30168C6.63427 7.51987 6.87564 7.69422 7.14497 7.81354C7.41429 7.93286 7.70561 7.9945 8.00018 7.9945C8.29475 7.9945 8.58606 7.93286 8.85539 7.81354C9.12471 7.69422 9.36609 7.51987 9.564 7.30168C9.76191 7.0835 9.91197 6.82632 10.0045 6.54667C10.0971 6.26702 10.1301 5.9711 10.1015 5.67792L9.66684 1.33325M6.33351 1.33325H4.94551C4.34018 1.33325 4.03751 1.33325 3.77751 1.40459C3.50709 1.47876 3.25529 1.60896 3.03845 1.78675C2.82161 1.96454 2 4.5 1.86684 5.33325L1.82151 5.56059C1.76501 5.83237 1.76457 6.11282 1.82023 6.38478C1.87588 6.65674 1.98645 6.91448 2.14517 7.14222C2.30389 7.36996 2.50742 7.56291 2.7433 7.70926C2.97919 7.85561 3.24245 7.95228 3.51699 7.99335C3.79153 8.03442 4.07157 8.01903 4.33995 7.94811C4.60833 7.8772 4.85942 7.75225 5.07784 7.58093C5.29626 7.40961 5.47741 7.19551 5.61021 6.95174C5.74302 6.70798 5.82467 6.43967 5.85018 6.16325L6.33351 1.33325ZM9.66684 1.33325H11.0548C11.6602 1.33325 11.9628 1.33325 12.2228 1.40459C12.4933 1.47876 12.7451 1.60896 12.9619 1.78675C13.1787 1.96454 13.3558 2.18594 13.4815 2.43659C13.6022 2.67659 13.6615 2.97392 13.7802 3.56725L14.1788 5.56059C14.2353 5.83237 14.2358 6.11282 14.1801 6.38478C14.1245 6.65674 14.0139 6.91448 13.8552 7.14222C13.6965 7.36996 13.4929 7.56291 13.2571 7.70926C13.0212 7.85561 12.7579 7.95228 12.4834 7.99335C12.2088 8.03442 11.9288 8.01903 11.6604 7.94811C11.392 7.8772 11.1409 7.75225 10.9225 7.58093C10.7041 7.40961 10.5229 7.19551 10.3901 6.95174C10.2573 6.70798 10.1757 6.43967 10.1502 6.16325L9.66684 1.33325ZM6.33351 14.3333V12.3333C6.33351 11.7099 6.33351 11.3986 6.46751 11.1666C6.55528 11.0146 6.6815 10.8884 6.83351 10.8006C7.06551 10.6666 7.37684 10.6666 8.00018 10.6666C8.62351 10.6666 8.93484 10.6666 9.16684 10.8006C9.31885 10.8884 9.44508 11.0146 9.53284 11.1666C9.66684 11.3986 9.66684 11.7099 9.66684 12.3333V14.3333" stroke="#1C1F22" stroke-linecap="round"/>
</svg>
