<svg width="131" height="113" viewBox="0 0 131 113" fill="none" xmlns="http://www.w3.org/2000/svg">
<path fill-rule="evenodd" clip-rule="evenodd" d="M26.1157 12.8714C29.6884 5.97844 38.1725 3.28691 45.0654 6.85966L117.681 44.4977C124.574 48.0704 127.265 56.5545 123.692 63.4474L122.764 65.2376C121.487 67.7016 119.509 69.7324 117.08 71.0742L112.605 73.5455C108.541 75.7903 106.224 80.2589 106.733 84.8742L107.293 89.9553C107.598 92.7139 107.078 95.5008 105.801 97.9648L104.873 99.755C101.301 106.648 92.8165 109.339 85.9235 105.767L13.3084 68.1287C6.41548 64.5559 3.72394 56.0718 7.29669 49.1789L8.22458 47.3887C9.50173 44.9247 11.4797 42.8939 13.9091 41.5522L18.3839 39.0808C22.4484 36.836 24.7646 32.3674 24.2557 27.7522L23.6956 22.6711C23.3914 19.9125 23.9106 17.1255 25.1878 14.6615L26.1157 12.8714Z" fill="white" fill-opacity="0.4"/>
<path fill-rule="evenodd" clip-rule="evenodd" d="M67.5913 30.0504C69.4712 31.0248 70.2053 33.3386 69.2309 35.2185L66.8785 39.757C65.9041 41.6369 63.5903 42.3709 61.7104 41.3965C59.8305 40.4221 59.0965 38.1083 60.0708 36.2284L62.4232 31.69C63.3976 29.8101 65.7114 29.076 67.5913 30.0504Z" fill="white"/>
<path fill-rule="evenodd" clip-rule="evenodd" d="M60.5342 43.6666C62.4141 44.641 63.1481 46.9549 62.1738 48.8347L57.469 57.9116C56.4946 59.7915 54.1808 60.5256 52.3009 59.5512C50.421 58.5768 49.687 56.263 50.6613 54.3831L55.3661 45.3062C56.3405 43.4263 58.6543 42.6922 60.5342 43.6666Z" fill="white"/>
<path fill-rule="evenodd" clip-rule="evenodd" d="M51.1248 61.8199C53.0047 62.7943 53.7387 65.1082 52.7643 66.9881L50.412 71.5265C49.4376 73.4064 47.1237 74.1404 45.2438 73.1661C43.364 72.1917 42.6299 69.8778 43.6043 67.9979L45.9567 63.4595C46.9311 61.5796 49.2449 60.8456 51.1248 61.8199Z" fill="white"/>
</svg>
