<svg xmlns="http://www.w3.org/2000/svg" xmlns:xlink="http://www.w3.org/1999/xlink"><defs><style>
    .sprite-symbol-usage {display: none;}
    .sprite-symbol-usage:target {display: inline;}
  </style><symbol viewBox="0 0 24 24" id="icon-arrow">
<path fill-rule="evenodd" clip-rule="evenodd" d="M8.29289 5.29289C8.68342 4.90237 9.31658 4.90237 9.70711 5.29289L15.7071 11.2929C16.0976 11.6834 16.0976 12.3166 15.7071 12.7071L9.70711 18.7071C9.31658 19.0976 8.68342 19.0976 8.29289 18.7071C7.90237 18.3166 7.90237 17.6834 8.29289 17.2929L13.5858 12L8.29289 6.70711C7.90237 6.31658 7.90237 5.68342 8.29289 5.29289Z" />
</symbol><symbol viewBox="0 0 11 8" fill="none" id="icon-arrow-pointer">
<path d="M10.3536 4.35355C10.5488 4.15829 10.5488 3.84171 10.3536 3.64645L7.17157 0.464466C6.97631 0.269204 6.65973 0.269204 6.46447 0.464466C6.2692 0.659728 6.2692 0.976311 6.46447 1.17157L9.29289 4L6.46447 6.82843C6.2692 7.02369 6.2692 7.34027 6.46447 7.53553C6.65973 7.7308 6.97631 7.7308 7.17157 7.53553L10.3536 4.35355ZM0 4.5H10V3.5H0V4.5Z" fill="#DBDBDB" />
</symbol><symbol viewBox="0 0 19 19" fill="none" id="icon-badge">
<g clip-path="url(#icon-badge_clip0_237_528)">
<path d="M17.755 1.06301C17.704 0.935959 17.606 0.833468 17.4813 0.776857C17.3566 0.720246 17.215 0.713874 17.0857 0.759067C16.9565 0.804259 16.8497 0.897537 16.7874 1.01949C16.7252 1.14145 16.7124 1.2827 16.7517 1.41385C17.5686 3.76161 15.9471 5.51496 14.7108 6.45406L14.2114 5.7383C14.0434 5.49825 13.668 5.29865 13.376 5.29513L10.5728 5.30744C10.2304 5.31778 9.89708 5.42047 9.6082 5.60465L1.34796 11.3967C1.15582 11.5319 1.02509 11.7377 0.984383 11.9691C0.943677 12.2005 0.996312 12.4386 1.13077 12.6312L4.88454 18.002C5.16592 18.4021 5.61525 18.3538 6.01621 18.0741L14.2765 12.2812C14.5139 12.1133 14.7882 11.751 14.8849 11.474L15.7625 8.70861C15.8592 8.43251 15.8003 8.01132 15.6324 7.77127L15.3281 7.33513C16.9882 6.06277 18.7117 3.81437 17.755 1.06301ZM13.9115 9.29159C13.7594 9.39811 13.5877 9.47361 13.4063 9.51376C13.225 9.55391 13.0375 9.55793 12.8546 9.52559C12.6717 9.49326 12.4969 9.42519 12.3403 9.3253C12.1837 9.2254 12.0483 9.09562 11.9419 8.94339C11.7264 8.63533 11.6419 8.25435 11.7071 7.88408C11.7722 7.51381 11.9815 7.18451 12.2892 6.96846C12.5304 6.79947 12.8184 6.71007 13.1129 6.71275C13.4074 6.71543 13.6937 6.81005 13.9318 6.98341C13.6926 7.12761 13.5282 7.21203 13.4974 7.22522C13.3884 7.27719 13.3003 7.36464 13.2475 7.47325C13.1947 7.58185 13.1804 7.70517 13.2068 7.82299C13.2333 7.94081 13.299 8.04614 13.3932 8.12174C13.4873 8.19733 13.6044 8.2387 13.7251 8.23906C13.8007 8.23906 13.8781 8.22147 13.9511 8.18718C14.1217 8.10628 14.3046 8.01044 14.4954 7.89701C14.5393 8.16086 14.5078 8.43174 14.4045 8.67846C14.3012 8.92518 14.1303 9.13772 13.9115 9.29159Z" fill="#FAFAFA" />
</g>
<defs>

</defs>
</symbol><clipPath id="icon-badge_clip0_237_528">
<rect width="17.5862" height="17.5862" fill="white" transform="translate(0.706909 0.706787)" />
</clipPath><symbol viewBox="0 0 39 39" fill="none" id="icon-button">
<g clip-path="url(#icon-button_clip0_160_101)">
<path d="M29.4522 22.4045L23.87 19.1551L20.8496 7.88279L12.5288 10.1123L13.3365 13.1267L10.9478 11.7475L10.6449 10.6171C10.5103 10.1148 10.5809 9.62468 10.8567 9.14693C11.1325 8.66918 11.5216 8.363 12.024 8.22839L20.3448 5.99884C20.8681 5.85862 21.362 5.92259 21.8265 6.19076C22.291 6.45893 22.5933 6.85467 22.7335 7.37799L25.4258 17.4257L28.9474 20.5205L29.4522 22.4045ZM34.9517 30.1183L24.0829 23.8432L21.9164 24.4237L23.6832 31.0175L22.9936 32.2119L21.7992 31.5223L20.0324 24.9285L12.3396 26.9898L11.8348 25.1058L13.3372 20.6649L12.3864 17.1168L5.06095 12.8874L6.04934 11.1754L35.9171 28.4462L34.9517 30.1183ZM14.1898 24.4748L21.7256 22.4556L14.7584 18.4331L15.3894 20.788L14.1898 24.4748Z" fill="#1C1C1C" />
</g>
<defs>

</defs>
</symbol><clipPath id="icon-button_clip0_160_101">
<rect width="31.2065" height="31.2065" fill="white" transform="translate(0.455475 8.63599) rotate(-15)" />
</clipPath><symbol viewBox="0 0 30 31" fill="none" id="icon-buy">
<g id="icon-buy_Iconly/Light/Buy">
<g id="icon-buy_Buy">
<path id="icon-buy_Stroke 1" d="M3.4375 4.5625L6.0375 5.0125L7.24125 19.3538C7.3375 20.525 8.31625 21.4238 9.49125 21.42H23.1275C24.2488 21.4225 25.2 20.5975 25.3588 19.4875L26.545 11.29C26.6775 10.3737 26.0413 9.52375 25.1263 9.39125C25.0463 9.38 6.455 9.37375 6.455 9.37375" stroke="#27AE60" stroke-width="2" stroke-linecap="round" stroke-linejoin="round" />
<path id="icon-buy_Stroke 3" d="M17.6562 13.9932H21.1225" stroke="#27AE60" stroke-width="2" stroke-linecap="round" stroke-linejoin="round" />
<path id="icon-buy_Stroke 5" fill-rule="evenodd" clip-rule="evenodd" d="M8.9427 25.7529C9.31895 25.7529 9.6227 26.0579 9.6227 26.4329C9.6227 26.8092 9.31895 27.1142 8.9427 27.1142C8.56645 27.1142 8.2627 26.8092 8.2627 26.4329C8.2627 26.0579 8.56645 25.7529 8.9427 25.7529Z" fill="#27AE60" stroke="#27AE60" stroke-width="2" stroke-linecap="round" stroke-linejoin="round" />
<path id="icon-buy_Stroke 7" fill-rule="evenodd" clip-rule="evenodd" d="M23.0433 25.7529C23.4195 25.7529 23.7245 26.0579 23.7245 26.4329C23.7245 26.8092 23.4195 27.1142 23.0433 27.1142C22.667 27.1142 22.3633 26.8092 22.3633 26.4329C22.3633 26.0579 22.667 25.7529 23.0433 25.7529Z" fill="#27AE60" stroke="#27AE60" stroke-width="2" stroke-linecap="round" stroke-linejoin="round" />
</g>
</g>
</symbol><symbol viewBox="0 0 24 24" fill="none" id="icon-call">
<path d="M14.5 6.5C15.2372 6.64382 15.9689 6.96892 16.5 7.5C17.0311 8.03108 17.3562 8.76284 17.5 9.5M15 3C16.5315 3.17014 17.9097 3.91107 19 5C20.0903 6.08893 20.8279 7.46869 21 9M20.9995 16.4767V19.1864C21.0037 20.2223 20.0723 21.0873 19.0265 20.9929C10.0001 21 3.00006 13.935 3.00713 4.96919C2.91294 3.92895 3.77364 3.00106 4.80817 3.00009H7.52331C7.96253 2.99577 8.38835 3.151 8.72138 3.43684C9.66819 4.24949 10.2772 7.00777 10.0429 8.10428C9.85994 8.96036 8.99696 9.55929 8.41026 10.1448C9.69864 12.4062 11.5747 14.2785 13.8405 15.5644C14.4272 14.9788 15.0274 14.1176 15.8851 13.935C16.9855 13.7008 19.7615 14.3106 20.5709 15.264C20.858 15.6021 21.0105 16.0337 20.9995 16.4767Z" stroke="#FF6431" stroke-width="1.5" stroke-linecap="round" stroke-linejoin="round" />
</symbol><symbol viewBox="0 0 24 24" fill="none" id="icon-car">
<g clip-path="url(#icon-car_clip0_471_3705)">
<path d="M4.94551 4.5C3.94351 4.5 3.01801 5.001 2.46076 5.83575L0.375013 8.9535C0.129547 9.32112 -0.000991196 9.75346 1.28833e-05 10.1955V15.1642C-0.00136999 15.4972 0.108609 15.821 0.312459 16.0843C0.516309 16.3475 0.802323 16.535 1.12501 16.617L3.07051 17.1097C3.21043 17.7838 3.57792 18.3892 4.11133 18.8245C4.64473 19.2597 5.31159 19.4982 6.00001 19.5C7.38901 19.5 8.54851 18.5393 8.88301 17.25H15.867C16.2015 18.5393 17.361 19.5 18.75 19.5C20.139 19.5 21.2985 18.5393 21.633 17.25H22.5C23.3205 17.25 24 16.5705 24 15.75V13.008C23.9993 12.3395 23.7752 11.6904 23.3633 11.1638C22.9515 10.6373 22.3754 10.2634 21.7268 10.1017L17.6715 9.0705L14.742 5.5785C14.4618 5.24128 14.1108 4.96986 13.7139 4.78347C13.317 4.59709 12.884 4.50031 12.4455 4.5H4.94551ZM4.94551 6H8.25001V9H2.15626L3.70351 6.6795V6.65625C3.8394 6.45215 4.02411 6.28523 4.24087 6.17063C4.45763 6.05602 4.70033 5.99737 4.94551 6ZM9.75001 6H12.4455C12.8903 6 13.3095 6.1965 13.5938 6.53925L15.6563 9H9.75001V6ZM1.50001 10.5H17.1563L21.375 11.5545C21.6987 11.6348 21.9859 11.822 22.1901 12.0858C22.3942 12.3496 22.5034 12.6745 22.5 13.008V15.75H21.633C21.2985 14.4607 20.139 13.5 18.75 13.5C17.361 13.5 16.2015 14.4607 15.867 15.75H8.88301C8.54851 14.4607 7.38901 13.5 6.00001 13.5C4.67026 13.5 3.55351 14.379 3.16426 15.5858L1.50001 15.165V10.5ZM6.00001 15C6.83776 15 7.50001 15.6622 7.50001 16.5C7.50001 17.3378 6.83776 18 6.00001 18C5.16226 18 4.50001 17.3378 4.50001 16.5C4.50001 15.6622 5.16226 15 6.00001 15ZM18.75 15C19.5878 15 20.25 15.6622 20.25 16.5C20.25 17.3378 19.5878 18 18.75 18C17.9123 18 17.25 17.3378 17.25 16.5C17.25 15.6622 17.9123 15 18.75 15Z" fill="#FF6431" />
</g>
<defs>

</defs>
</symbol><clipPath id="icon-car_clip0_471_3705">
<rect width="24" height="24" fill="white" />
</clipPath><symbol viewBox="0 0 29 28" id="icon-cart">
<path fill-rule="evenodd" clip-rule="evenodd" d="M14.7387 4.375C12.6446 4.375 10.947 6.07259 10.947 8.16667V8.45833H18.5304V8.16667C18.5304 6.07259 16.8328 4.375 14.7387 4.375ZM20.2804 8.45833V8.16667C20.2804 5.10609 17.7993 2.625 14.7387 2.625C11.6781 2.625 9.19705 5.10609 9.19705 8.16667V8.45833H8.86039C7.2063 8.45833 5.82333 9.71586 5.6665 11.3625L4.77762 20.6958C4.59823 22.5794 6.07941 24.2083 7.9715 24.2083H21.5059C23.398 24.2083 24.8792 22.5794 24.6998 20.6958L23.8109 11.3625C23.6541 9.71586 22.2711 8.45833 20.617 8.45833H20.2804ZM8.86039 10.2083C8.10853 10.2083 7.4799 10.7799 7.40862 11.5284L6.51973 20.8617C6.43819 21.7179 7.11146 22.4583 7.9715 22.4583H21.5059C22.366 22.4583 23.0392 21.7179 22.9577 20.8617L22.0688 11.5284C21.9975 10.7799 21.3689 10.2083 20.617 10.2083H8.86039ZM10.072 11.9584C10.5553 11.9584 10.947 12.3501 10.947 12.8334V12.845C10.947 13.3283 10.5553 13.72 10.072 13.72C9.5888 13.72 9.19705 13.3283 9.19705 12.845V12.8334C9.19705 12.3501 9.5888 11.9584 10.072 11.9584ZM19.4054 11.9584C19.8886 11.9584 20.2804 12.3501 20.2804 12.8334V12.845C20.2804 13.3283 19.8886 13.72 19.4054 13.72C18.9221 13.72 18.5304 13.3283 18.5304 12.845V12.8334C18.5304 12.3501 18.9221 11.9584 19.4054 11.9584Z" />
</symbol><symbol viewBox="0 0 24 24" id="icon-check">
<path d="M7.37309 12.4287C7.12527 12.2238 6.80235 12.1126 6.46911 12.1174C6.13586 12.1223 5.81693 12.2428 5.5763 12.4549C5.33567 12.667 5.19113 12.955 5.17169 13.261C5.15224 13.567 5.25931 13.8684 5.47144 14.1049L8.40315 16.9349C8.52589 17.0533 8.67339 17.1477 8.83678 17.2124C9.00017 17.2771 9.17609 17.3108 9.35398 17.3114C9.53092 17.3123 9.70627 17.2806 9.86961 17.218C10.0329 17.1554 10.1809 17.0632 10.3048 16.947L19.2584 8.44489C19.3798 8.33005 19.4754 8.19434 19.5398 8.04551C19.6042 7.89669 19.636 7.73766 19.6336 7.5775C19.6311 7.41735 19.5944 7.25921 19.5255 7.11211C19.4566 6.965 19.3569 6.83183 19.232 6.72018C19.1071 6.60852 18.9596 6.52059 18.7978 6.46138C18.636 6.40218 18.463 6.37287 18.2889 6.37512C18.1148 6.37738 17.9428 6.41116 17.7829 6.47453C17.623 6.5379 17.4782 6.62963 17.3568 6.74447L9.36718 14.3478L7.37309 12.4287Z" />
</symbol><symbol viewBox="0 0 19 20" id="icon-clarity">
<g id="icon-clarity_clarity:new-line">
<path id="icon-clarity_Vector" d="M17.7388 12.6386L15.6464 9.9998L17.6978 7.41377C17.8099 7.2723 17.8806 7.10085 17.9015 6.91951C17.9224 6.73817 17.8926 6.55446 17.8157 6.38992C17.7378 6.20549 17.6085 6.04893 17.4442 5.93998C17.28 5.83103 17.088 5.77457 16.8926 5.77771H0.99489C0.866255 5.77562 0.738479 5.79962 0.61886 5.84835C0.499241 5.89708 0.390121 5.96959 0.297734 6.06173C0.205347 6.15386 0.131502 6.26383 0.0804159 6.38534C0.0293301 6.50685 0.00200458 6.63752 0 6.7699L0 13.235C0.00539022 13.5014 0.11308 13.7548 0.299518 13.9397C0.485956 14.1247 0.735972 14.2261 0.99489 14.2219H16.949C17.1379 14.2251 17.3237 14.1727 17.4846 14.0708C17.6454 13.9688 17.7745 13.8217 17.8567 13.6466C17.9305 13.484 17.9586 13.3034 17.9377 13.1253C17.9169 12.9471 17.848 12.7785 17.7388 12.6386ZM1.02566 13.1664V6.83324H16.8106L14.3285 9.96286L16.8465 13.1664H1.02566Z" />
<path id="icon-clarity_Vector_2" d="M4.74116 10.6457L3.17986 8.41675H2.63867V11.5834H3.17986V9.35957L4.74116 11.5834H5.27756V8.41675H4.74116V10.6457Z" />
<path id="icon-clarity_Vector_3" d="M6.3335 11.5834H8.44461V11.0608H6.84542V10.2358H8.29058V9.70801H6.84542V8.94453H8.44461V8.41675H6.3335V11.5834Z" />
<path id="icon-clarity_Vector_4" d="M12.409 10.6867L11.6601 8.41675H11.0343L10.2802 10.6867L9.60311 8.41675H8.97217L9.97757 11.5834H10.547L11.3472 9.23147L12.1423 11.5834H12.7219L13.7222 8.41675H13.0912L12.409 10.6867Z" />
</g>
</symbol><symbol viewBox="0 0 39 39" fill="none" id="icon-clip">
<g clip-path="url(#icon-clip_clip0_160_101)">
<path d="M29.4522 22.4045L23.87 19.1551L20.8496 7.88279L12.5288 10.1123L13.3365 13.1267L10.9478 11.7475L10.6449 10.6171C10.5103 10.1148 10.5809 9.62468 10.8567 9.14693C11.1325 8.66918 11.5216 8.363 12.024 8.22839L20.3448 5.99884C20.8681 5.85862 21.362 5.92259 21.8265 6.19076C22.291 6.45893 22.5933 6.85467 22.7335 7.37799L25.4258 17.4257L28.9474 20.5205L29.4522 22.4045ZM34.9517 30.1183L24.0829 23.8432L21.9164 24.4237L23.6832 31.0175L22.9936 32.2119L21.7992 31.5223L20.0324 24.9285L12.3396 26.9898L11.8348 25.1058L13.3372 20.6649L12.3864 17.1168L5.06095 12.8874L6.04934 11.1754L35.9171 28.4462L34.9517 30.1183ZM14.1898 24.4748L21.7256 22.4556L14.7584 18.4331L15.3894 20.788L14.1898 24.4748Z" fill="#1C1C1C" />
</g>
<defs>

</defs>
</symbol><clipPath id="icon-clip_clip0_160_101">
<rect width="31.2065" height="31.2065" fill="white" transform="translate(0.455475 8.63599) rotate(-15)" />
</clipPath><symbol viewBox="0 0 27 27" fill="none" id="icon-close">
<path fill-rule="evenodd" clip-rule="evenodd" d="M6.43463 6.43463C6.76413 6.10512 7.29837 6.10512 7.62787 6.43463L13.5 12.3068L19.3721 6.43463C19.7016 6.10512 20.2359 6.10512 20.5654 6.43463C20.8949 6.76413 20.8949 7.29837 20.5654 7.62787L14.6932 13.5L20.5654 19.3721C20.8949 19.7016 20.8949 20.2359 20.5654 20.5654C20.2359 20.8949 19.7016 20.8949 19.3721 20.5654L13.5 14.6932L7.62787 20.5654C7.29837 20.8949 6.76413 20.8949 6.43463 20.5654C6.10512 20.2359 6.10512 19.7016 6.43463 19.3721L12.3068 13.5L6.43463 7.62787C6.10512 7.29837 6.10512 6.76413 6.43463 6.43463Z" fill="#24292E" />
</symbol><symbol viewBox="0 0 32 32" fill="none" id="icon-cum">
<path fill-rule="evenodd" clip-rule="evenodd" d="M21.414 6H29L30 7V25L29 26H3L2 25V7L3 6H10.586L12.292 4.292L13 4H19L19.708 4.292L21.414 6ZM4 24H28V8H21L20.292 7.708L18.586 6H13.414L11.708 7.708L11 8H4V24ZM7 10C6.80222 10 6.60888 10.0586 6.44443 10.1685C6.27998 10.2784 6.15181 10.4346 6.07612 10.6173C6.00043 10.8 5.98063 11.0011 6.01922 11.1951C6.0578 11.3891 6.15304 11.5673 6.29289 11.7071C6.43275 11.847 6.61093 11.9422 6.80491 11.9808C6.99889 12.0194 7.19996 11.9996 7.38268 11.9239C7.56541 11.8482 7.72159 11.72 7.83147 11.5556C7.94135 11.3911 8 11.1978 8 11C8 10.7348 7.89464 10.4804 7.70711 10.2929C7.51957 10.1054 7.26522 10 7 10ZM16 12C16.7911 12 17.5645 12.2346 18.2223 12.6741C18.8801 13.1136 19.3928 13.7384 19.6955 14.4693C19.9983 15.2002 20.0775 16.0044 19.9231 16.7804C19.7688 17.5563 19.3878 18.269 18.8284 18.8284C18.269 19.3878 17.5563 19.7688 16.7804 19.9231C16.0044 20.0775 15.2002 19.9983 14.4693 19.6955C13.7384 19.3928 13.1137 18.8801 12.6741 18.2223C12.2346 17.5645 12 16.7911 12 16C12 14.9391 12.4214 13.9217 13.1716 13.1716C13.9217 12.4214 14.9391 12 16 12ZM16 10C14.8133 10 13.6533 10.3519 12.6666 11.0112C11.6799 11.6705 10.9109 12.6075 10.4567 13.7039C10.0026 14.8003 9.88378 16.0067 10.1153 17.1705C10.3468 18.3344 10.9182 19.4035 11.7574 20.2426C12.5965 21.0818 13.6656 21.6532 14.8295 21.8847C15.9933 22.1162 17.1997 21.9974 18.2961 21.5433C19.3925 21.0892 20.3295 20.3201 20.9888 19.3334C21.6481 18.3467 22 17.1867 22 16C22 14.4087 21.3679 12.8826 20.2426 11.7574C19.1174 10.6321 17.5913 10 16 10Z" fill="#A3A3A3" />
</symbol><symbol viewBox="0 0 24 24" fill="none" id="icon-eye">
<path d="M15.499 11.9999C15.499 13.9329 13.932 15.4999 11.999 15.4999C10.066 15.4999 8.49902 13.9329 8.49902 11.9999C8.49902 10.0669 10.066 8.49988 11.999 8.49988C13.932 8.49988 15.499 10.0669 15.499 11.9999Z" fill="#24292E" />
<path fill-rule="evenodd" clip-rule="evenodd" d="M11.9992 3.5C8.56725 3.5 5.87465 5.03417 3.94505 6.74062C2.01943 8.44355 0.813551 10.3513 0.32874 11.2012C0.0440664 11.7003 0.0440654 12.2997 0.32874 12.7987C0.813551 13.6487 2.01943 15.5564 3.94505 17.2594C5.87465 18.9658 8.56725 20.5 11.9992 20.5C15.4311 20.5 18.1237 18.9658 20.0532 17.2593C21.9789 15.5564 23.1847 13.6486 23.6695 12.7987C23.9542 12.2996 23.9542 11.7003 23.6695 11.2012C23.1847 10.3512 21.9788 8.44351 20.0532 6.74059C18.1236 5.03415 15.4311 3.5 11.9992 3.5ZM1.63169 11.9444C2.07317 11.1704 3.18324 9.41675 4.93875 7.86426C6.69029 6.31527 9.04402 5 11.9992 5C14.9543 5 17.308 6.31526 19.0595 7.86423C20.815 9.41671 21.9251 11.1704 22.3666 11.9444C22.3797 11.9674 22.383 11.9859 22.383 11.9999C22.383 12.0139 22.3797 12.0325 22.3666 12.0555C21.9251 12.8295 20.815 14.5832 19.0595 16.1357C17.308 17.6847 14.9543 19 11.9992 19C9.04402 19 6.69029 17.6847 4.93875 16.1357C3.18324 14.5832 2.07317 12.8296 1.63169 12.0556C1.61857 12.0326 1.61523 12.014 1.61523 12C1.61523 11.986 1.61857 11.9674 1.63169 11.9444Z" fill="#24292E" />
</symbol><symbol viewBox="0 0 24 24" fill="none" id="icon-eye-close">
<path d="M8.05233 5.83643C9.21775 5.32371 10.5325 5 12.0003 5C14.9555 5 17.3092 6.31526 19.0607 7.86423C20.8162 9.41671 21.9263 11.1704 22.3678 11.9444C22.3795 11.9649 22.3833 11.9832 22.3832 11.9992C22.3832 12.0153 22.3791 12.0356 22.3658 12.0588C22.1 12.5245 21.5885 13.3514 20.8357 14.2767C20.5743 14.598 20.6229 15.0704 20.9442 15.3318C21.2655 15.5932 21.7379 15.5446 21.9993 15.2233C22.816 14.2195 23.3727 13.3208 23.6686 12.8024C23.9516 12.3066 23.9572 11.7035 23.6707 11.2012C23.1859 10.3512 21.98 8.44351 20.0544 6.74059C18.1248 5.03415 15.4322 3.5 12.0003 3.5C10.305 3.5 8.78539 3.87518 7.44829 4.46343C7.06914 4.63023 6.89701 5.07281 7.06381 5.45195C7.23061 5.8311 7.67319 6.00323 8.05233 5.83643Z" fill="#24292E" />
<path fill-rule="evenodd" clip-rule="evenodd" d="M19.1664 17.9872C17.3282 19.3787 14.9334 20.5 12.0003 20.5C8.56843 20.5 5.87583 18.9658 3.94623 17.2594C2.02061 15.5564 0.814729 13.6487 0.329918 12.7987C0.0437594 12.2971 0.0482464 11.6948 0.331615 11.1983C0.791107 10.3932 1.89688 8.64032 3.64824 7.01097L1.31721 5.36219C0.979036 5.123 0.8988 4.65495 1.13799 4.31678C1.37719 3.97861 1.84523 3.89837 2.1834 4.13757L22.6834 18.6376C23.0216 18.8768 23.1018 19.3448 22.8626 19.683C22.6234 20.0211 22.1554 20.1014 21.8172 19.8622L19.1664 17.9872ZM4.90209 7.89784C3.1715 9.43921 2.07457 11.1705 1.63438 11.9418C1.62115 11.965 1.61723 11.9849 1.61719 12.0006C1.61715 12.0161 1.62085 12.0345 1.63286 12.0556C2.07434 12.8296 3.18442 14.5832 4.93993 16.1357C6.69147 17.6847 9.04519 19 12.0003 19C14.334 19 16.291 18.1804 17.874 17.0731L14.3583 14.5864C13.7362 15.1538 12.9086 15.4999 12.0002 15.4999C10.0672 15.4999 8.50024 13.9329 8.50024 11.9999C8.50024 11.5166 8.59819 11.0562 8.77532 10.6374L4.90209 7.89784Z" fill="#24292E" />
</symbol><symbol viewBox="0 0 25 24" id="icon-filter">
<path fill-rule="evenodd" clip-rule="evenodd" d="M10.5803 18.5928H4.2793C3.8653 18.5928 3.5293 18.2568 3.5293 17.8428C3.5293 17.4288 3.8653 17.0928 4.2793 17.0928H10.5803C10.9943 17.0928 11.3303 17.4288 11.3303 17.8428C11.3303 18.2568 10.9943 18.5928 10.5803 18.5928Z" />
<path fill-rule="evenodd" clip-rule="evenodd" d="M19.6911 8.90039H13.3911C12.9771 8.90039 12.6411 8.56439 12.6411 8.15039C12.6411 7.73639 12.9771 7.40039 13.3911 7.40039H19.6911C20.1051 7.40039 20.4411 7.73639 20.4411 8.15039C20.4411 8.56439 20.1051 8.90039 19.6911 8.90039Z" />

<g mask="url(#icon-filter_mask0_249_3642)">
<path fill-rule="evenodd" clip-rule="evenodd" d="M6.613 6.5C5.724 6.5 5 7.216 5 8.097C5 8.977 5.724 9.692 6.613 9.692C7.503 9.692 8.226 8.977 8.226 8.097C8.226 7.216 7.503 6.5 6.613 6.5ZM6.613 11.192C4.897 11.192 3.5 9.804 3.5 8.097C3.5 6.39 4.897 5 6.613 5C8.33 5 9.726 6.39 9.726 8.097C9.726 9.804 8.33 11.192 6.613 11.192Z" />
</g>
<path fill-rule="evenodd" clip-rule="evenodd" d="M17.8879 16.208C16.9979 16.208 16.2739 16.924 16.2739 17.804C16.2739 18.685 16.9979 19.4 17.8879 19.4C18.7769 19.4 19.4999 18.685 19.4999 17.804C19.4999 16.924 18.7769 16.208 17.8879 16.208ZM17.8879 20.9C16.1709 20.9 14.7739 19.511 14.7739 17.804C14.7739 16.097 16.1709 14.708 17.8879 14.708C19.6039 14.708 20.9999 16.097 20.9999 17.804C20.9999 19.511 19.6039 20.9 17.8879 20.9Z" />
</symbol><mask id="icon-filter_mask0_249_3642" style="mask-type:luminance" maskUnits="userSpaceOnUse" x="3" y="5" width="7" height="7">
<path fill-rule="evenodd" clip-rule="evenodd" d="M3.5 5.00049H9.7258V11.1921H3.5V5.00049Z" fill="white" />
</mask><symbol viewBox="0 0 29 28" id="icon-heart">
<path fill-rule="evenodd" clip-rule="evenodd" d="M9.54207 5.54175C7.12611 5.54175 5.11377 7.58204 5.11377 10.1665C5.11377 11.4031 5.58776 12.5829 6.42193 13.448L14.7388 22.0729L23.0556 13.448C23.8898 12.5829 24.3638 11.4031 24.3638 10.1665C24.3638 7.58204 22.3514 5.54175 19.9355 5.54175C18.7715 5.54175 17.6485 6.02097 16.8153 6.88495L15.3686 8.38523C15.2037 8.55625 14.9764 8.65286 14.7388 8.65286C14.5012 8.65286 14.2738 8.55625 14.1089 8.38523L12.6622 6.88495C11.8291 6.02097 10.706 5.54175 9.54207 5.54175ZM3.36377 10.1665C3.36377 6.67607 6.10017 3.79175 9.54207 3.79175C11.1911 3.79175 12.7659 4.4714 13.9219 5.67021L14.7388 6.5173L15.5556 5.67021L16.1679 6.26064L15.5556 5.67021C16.7116 4.4714 18.2864 3.79175 19.9355 3.79175C23.3774 3.79175 26.1138 6.67607 26.1138 10.1665C26.1138 11.8471 25.4703 13.465 24.3153 14.6627L15.3686 23.9408C15.2037 24.1118 14.9764 24.2084 14.7388 24.2084C14.5012 24.2084 14.2738 24.1118 14.1089 23.9408L5.1622 14.6627C4.00725 13.465 3.36377 11.8471 3.36377 10.1665Z" />
</symbol><symbol viewBox="0 0 26 26" id="icon-heart-fill">
<path d="M4.69235 13.0512L13 21.6666L21.3076 13.0512C22.2312 12.0935 22.75 10.7946 22.75 9.44013C22.75 6.61968 20.5452 4.33325 17.8255 4.33325C16.5194 4.33325 15.2669 4.8713 14.3434 5.82902L13 7.22214L11.6566 5.82902C10.7331 4.8713 9.48055 4.33325 8.17449 4.33325C5.45477 4.33325 3.25 6.61968 3.25 9.44013C3.25 10.7946 3.76883 12.0935 4.69235 13.0512Z" />
</symbol><symbol viewBox="0 0 24 24" fill="none" id="icon-home">
<path d="M4 10L12 3L20 10L20 20H15V16C15 15.2044 14.6839 14.4413 14.1213 13.8787C13.5587 13.3161 12.7957 13 12 13C11.2044 13 10.4413 13.3161 9.87868 13.8787C9.31607 14.4413 9 15.2043 9 16V20H4L4 10Z" stroke="#FF6431" stroke-width="1.5" stroke-linecap="round" stroke-linejoin="round" />
</symbol><symbol viewBox="0 0 130 49" id="icon-logo">
<g clip-path="url(#icon-logo_clip0_155_524)">
<path fill-rule="evenodd" clip-rule="evenodd" d="M7.08767 0.821018L2.4464 0.812619C2.90185 1.24763 3.25152 1.91913 3.25152 2.87357V9.78378H4.89428C4.92852 9.78378 6.19487 9.78378 7.52968 10.4337C8.86448 11.0837 10.1993 12.4863 10.1993 15.0862V15.4967H9.78858C9.75436 15.4967 9.10406 15.4967 8.38531 15.1546C7.66658 14.8125 6.94784 13.9915 6.94784 12.6232C6.94784 11.6995 6.57135 11.2548 6.12641 10.9811C5.71571 10.6732 5.1681 10.6048 4.99696 10.6048H4.92852H4.89428H3.25152V29.7619V30.1383H6.87212e-05V29.7619V10.6048L0 9.78378L6.87212e-05 0.808192V0.410508V0H0.410778H7.08767C7.09437 0.00671149 7.14852 0.0121063 7.24129 0.021351C7.62142 0.0592271 8.65012 0.161728 9.72305 0.684182C11.0237 1.33415 12.3927 2.73673 12.3927 5.30241V5.71292H11.982C11.9478 5.71292 11.2632 5.71292 10.5787 5.37082C9.85995 5.02874 9.10698 4.24193 9.10698 2.87357C9.10698 1.9157 8.7305 1.47099 8.31978 1.19732C7.90468 0.941989 7.42999 0.865321 7.20145 0.82841L7.15611 0.821018H7.08767ZM17.8056 9.85222H17.7371C17.429 9.85222 16.1969 9.92064 14.9305 10.639C14.5198 10.1943 13.8354 9.85222 12.9112 9.85222H12.5005V10.2627V15.1204V15.5309V30.2066H15.752V12.6915C15.752 11.6311 16.2312 11.1864 16.7445 10.9127C17.0183 10.7759 17.2922 10.7074 17.4975 10.7074C17.5659 10.6732 17.6686 10.6732 17.7371 10.6732H17.8056H17.8739C18.0793 10.6732 18.5927 10.7417 19.0376 11.0153C19.4483 11.3232 19.8248 11.7338 19.8248 12.6915C19.8248 14.06 20.5778 14.8468 21.2965 15.1888C21.9811 15.5309 22.6656 15.5309 22.6998 15.5309H23.1105V15.1546C23.1105 12.5548 21.7414 11.1522 20.4409 10.5022C19.1061 9.85222 17.8397 9.85222 17.8056 9.85222ZM29.335 9.85222C29.3693 9.85222 30.6356 9.85222 31.9705 10.5022C33.271 11.1522 34.64 12.5548 34.64 15.1546C34.64 17.7204 33.271 19.1229 31.9705 19.7728C30.6356 20.4229 29.3693 20.4229 29.335 20.4229V19.6019H29.4035H29.643C29.8484 19.5676 30.1222 19.4992 30.3618 19.3623C30.8752 19.0887 31.3886 18.644 31.3886 17.5835V12.6915C31.3886 11.7338 31.0122 11.3232 30.5672 11.0153C30.1222 10.7417 29.6089 10.6732 29.4035 10.6732H29.335H29.2666C29.1981 10.6732 29.1298 10.6732 29.0271 10.7074L28.9681 10.7171C28.7712 10.7489 28.5256 10.7886 28.3083 10.9127C27.7949 11.1864 27.2815 11.6311 27.2815 12.6915V27.3673C27.2815 28.291 27.658 28.7357 28.103 29.0093C28.5479 29.3172 29.0613 29.3856 29.2666 29.3856H29.335H29.4035C29.472 29.3856 29.5404 29.3856 29.643 29.3514C29.8484 29.3172 30.1222 29.2488 30.3618 29.1462C30.8752 28.8724 31.3886 28.4277 31.3886 27.3673C31.3886 25.999 32.1073 25.2121 32.8261 24.87C33.5449 24.4937 34.1951 24.4937 34.2293 24.4937H34.64V24.9042C34.64 27.5041 33.271 28.9067 31.9705 29.5567C30.6356 30.2066 29.3693 30.2066 29.335 30.2066C29.3008 30.2066 28.0345 30.2066 26.6996 29.5567C25.3991 28.9067 24.0643 27.5041 24.0643 24.9042V15.1546C24.0643 12.5548 25.3991 11.1522 26.6996 10.5022C28.0345 9.85222 29.3008 9.85222 29.335 9.85222ZM40.6774 10.9127C40.8948 10.7886 41.1403 10.7489 41.3373 10.7171L41.3961 10.7074C41.4988 10.6732 41.5673 10.6732 41.6357 10.6732H41.7042H41.7727C41.978 10.6732 42.4914 10.7417 42.9363 11.0153C43.3812 11.3232 43.7578 11.7338 43.7578 12.6915C43.7236 14.06 44.4765 14.8468 45.1953 15.1888C45.9139 15.5309 46.5643 15.5309 46.5985 15.5309H47.0092V15.1546C47.0092 12.5548 45.6402 11.1522 44.3396 10.5022C43.0048 9.85222 41.7385 9.85222 41.7042 9.85222C41.67 9.85222 40.4037 9.85222 39.0688 10.5022C37.7683 11.1522 36.3992 12.5548 36.3992 15.1546C36.3992 17.7204 37.7683 19.1229 39.0688 19.7728C40.4037 20.4229 41.67 20.4229 41.7042 20.4229H41.7727L41.818 20.4302C42.0465 20.4671 42.5213 20.5438 42.9363 20.7991C43.3812 21.0728 43.7578 21.5175 43.7578 22.4754V27.3673C43.7578 28.4277 43.2444 28.8724 42.731 29.1462C42.4914 29.2488 42.2176 29.3172 42.0122 29.3514C41.9095 29.3856 41.8411 29.3856 41.7727 29.3856H41.7042H41.6357C41.4303 29.3856 40.9171 29.3172 40.472 29.0093C40.0271 28.7357 39.6507 28.291 39.6507 27.3673C39.6849 25.999 38.932 25.2121 38.2132 24.87C37.4944 24.4937 36.8442 24.4937 36.8099 24.4937H36.3992V24.9042C36.3992 27.5041 37.7683 28.9067 39.0688 29.5567C40.4037 30.2066 41.67 30.2066 41.7042 30.2066C41.7385 30.2066 43.0048 30.2066 44.3396 29.5567C45.6402 28.9067 47.0092 27.5041 47.0092 24.9042C47.0092 22.3386 45.6402 20.936 44.3396 20.286C43.2667 19.7636 42.238 19.6611 41.8578 19.6232C41.7651 19.6139 41.7109 19.6085 41.7042 19.6019H41.6357C41.4303 19.6019 40.9171 19.5334 40.472 19.2597C40.0271 18.9518 39.6507 18.5414 39.6507 17.5835V12.6915C39.6507 11.6311 40.164 11.1864 40.6774 10.9127ZM48.8654 0.0684173H49.2762C50.6452 0.0684173 51.4323 0.821018 51.7747 1.5052C52.1169 2.22359 52.1169 2.87357 52.1169 2.90777V30.2066H48.8654V0.478927V0.0684173ZM54.1705 9.85222C54.2047 9.85222 55.471 9.85222 56.7715 10.5022C58.1064 11.1522 59.4754 12.5548 59.4754 15.1546V30.2066H56.1898V12.6915C56.1898 11.7338 55.8132 11.3232 55.4025 11.0153C54.9576 10.7417 54.4442 10.6732 54.2389 10.6732H54.1705V10.2627V9.85222ZM78.1301 0.71839C76.7952 0.0684173 75.5289 0.0684173 75.4947 0.0684173V0.478927V0.889435H75.5632C75.7684 0.889435 76.2818 0.957854 76.7269 1.26574C77.1376 1.53941 77.514 1.98413 77.514 2.90777V27.3673C77.514 28.4277 77.0349 28.8724 76.5215 29.1462C76.2818 29.2488 76.0081 29.3172 75.8027 29.3514C75.7001 29.3856 75.6316 29.3856 75.5632 29.3856H75.4947V30.2066C75.5289 30.2066 76.7952 30.2066 78.1301 29.5567C79.4307 28.9067 80.7997 27.5041 80.7997 24.9042V5.37082C80.7997 2.77094 79.4307 1.36836 78.1301 0.71839ZM70.6004 0.0684173H70.1897V0.478927V30.2066H73.4411V2.90777C73.4411 2.87357 73.4411 2.22359 73.0989 1.5052C72.7567 0.821018 71.9694 0.0684173 70.6004 0.0684173ZM88.2275 9.85222H88.2959C88.3301 9.85222 89.5965 9.85222 90.9313 10.5022C92.2319 11.1522 93.601 12.5548 93.601 15.1546V15.5309H93.1903C93.1561 15.5309 92.4715 15.5309 91.7869 15.1888C91.0683 14.8468 90.3152 14.06 90.3152 12.6915C90.3152 11.7338 89.9388 11.3232 89.5281 11.0153C89.0832 10.7417 88.5698 10.6732 88.3644 10.6732H88.2959H88.2275C88.1591 10.6732 88.0564 10.6732 87.9879 10.7074C87.7826 10.7074 87.5087 10.7759 87.235 10.9127C86.7216 11.1864 86.2424 11.6311 86.2424 12.6915V30.2066H82.9909V15.5309V15.1204V10.2627V9.85222H83.4016C84.3257 9.85222 85.0103 10.1943 85.4209 10.639C86.6874 9.92064 87.9194 9.85222 88.2275 9.85222ZM102.461 10.5022C101.126 9.85222 99.8597 9.85222 99.8255 9.85222C99.7913 9.85222 98.5249 9.85222 97.1901 10.5022C95.8895 11.1522 94.5547 12.5548 94.5547 15.1546V24.9042C94.5547 27.5041 95.8895 28.9067 97.1901 29.5567C98.5249 30.2066 99.7913 30.2066 99.8255 30.2066C99.8597 30.2066 101.126 30.2066 102.461 29.5567C103.761 28.9067 105.13 27.5041 105.13 24.9042V24.4937H104.72C104.686 24.4937 104.035 24.4937 103.317 24.87C102.598 25.2121 101.879 25.999 101.879 27.3673C101.879 28.4277 101.366 28.8724 100.852 29.1462C100.613 29.2488 100.339 29.3172 100.133 29.3514C100.031 29.3856 99.9624 29.3856 99.894 29.3856H99.8255H99.757C99.5517 29.3856 99.0383 29.3172 98.5933 29.0093C98.1484 28.7357 97.7719 28.291 97.7719 27.3673V12.6915C97.7719 11.6311 98.2853 11.1864 98.7987 10.9127C99.016 10.7886 99.2616 10.7489 99.4586 10.7171L99.5175 10.7074C99.6201 10.6732 99.6886 10.6732 99.757 10.6732H99.8255H99.894C100.099 10.6732 100.613 10.7417 101.058 11.0153C101.503 11.3232 101.879 11.7338 101.879 12.6915V17.5835C101.879 18.644 101.366 19.0887 100.852 19.3623C100.613 19.4992 100.339 19.5676 100.133 19.6019H99.894H99.8255V20.4229C99.8597 20.4229 101.126 20.4229 102.461 19.7728C103.761 19.1229 105.13 17.7204 105.13 15.1546C105.13 12.5548 103.761 11.1522 102.461 10.5022ZM111.828 10.7171C111.631 10.7489 111.385 10.7886 111.167 10.9127C110.655 11.1864 110.141 11.6311 110.141 12.6915V17.5835C110.141 18.5414 110.517 18.9518 110.963 19.2597C111.408 19.5334 111.921 19.6019 112.126 19.6019H112.194C112.201 19.6085 112.255 19.6139 112.348 19.6232C112.728 19.6611 113.758 19.7636 114.83 20.286C116.13 20.936 117.499 22.3386 117.499 24.9042C117.499 27.5041 116.13 28.9067 114.83 29.5567C113.495 30.2066 112.229 30.2066 112.194 30.2066C112.161 30.2066 110.894 30.2066 109.56 29.5567C108.259 28.9067 106.89 27.5041 106.89 24.9042V24.4937H107.3C107.335 24.4937 107.985 24.4937 108.704 24.87C109.422 25.2121 110.175 25.999 110.141 27.3673C110.141 28.291 110.517 28.7357 110.963 29.0093C111.408 29.3172 111.921 29.3856 112.126 29.3856H112.194H112.263C112.332 29.3856 112.4 29.3856 112.503 29.3514C112.708 29.3172 112.982 29.2488 113.221 29.1462C113.735 28.8724 114.248 28.4277 114.248 27.3673V22.4754C114.248 21.5175 113.871 21.0728 113.427 20.7991C113.011 20.5438 112.537 20.4671 112.308 20.4302L112.263 20.4229H112.194C112.161 20.4229 110.894 20.4229 109.56 19.7728C108.259 19.1229 106.89 17.7204 106.89 15.1546C106.89 12.5548 108.259 11.1522 109.56 10.5022C110.894 9.85222 112.161 9.85222 112.194 9.85222C112.229 9.85222 113.495 9.85222 114.83 10.5022C116.13 11.1522 117.499 12.5548 117.499 15.1546V15.5309H117.089C117.054 15.5309 116.404 15.5309 115.686 15.1888C114.967 14.8468 114.214 14.06 114.248 12.6915C114.248 11.7338 113.871 11.3232 113.427 11.0153C112.982 10.7417 112.468 10.6732 112.263 10.6732H112.194H112.126C112.058 10.6732 111.99 10.6732 111.887 10.7074L111.828 10.7171ZM123.668 10.9127C123.886 10.7886 124.132 10.7489 124.328 10.7171L124.387 10.7074C124.49 10.6732 124.558 10.6732 124.627 10.6732H124.695H124.763C124.969 10.6732 125.482 10.7417 125.927 11.0153C126.372 11.3232 126.749 11.7338 126.749 12.6915C126.714 14.06 127.467 14.8468 128.187 15.1888C128.905 15.5309 129.555 15.5309 129.589 15.5309H130V15.1546C130 12.5548 128.631 11.1522 127.331 10.5022C125.996 9.85222 124.73 9.85222 124.695 9.85222C124.661 9.85222 123.395 9.85222 122.059 10.5022C120.759 11.1522 119.39 12.5548 119.39 15.1546C119.39 17.7204 120.759 19.1229 122.059 19.7728C123.395 20.4229 124.661 20.4229 124.695 20.4229H124.763L124.809 20.4302C125.037 20.4671 125.512 20.5438 125.927 20.7991C126.372 21.0728 126.749 21.5175 126.749 22.4754V27.3673C126.749 28.4277 126.235 28.8724 125.722 29.1462C125.483 29.2488 125.208 29.3172 125.003 29.3514C124.901 29.3856 124.833 29.3856 124.763 29.3856H124.695H124.627C124.421 29.3856 123.908 29.3172 123.463 29.0093C123.018 28.7357 122.642 28.291 122.642 27.3673C122.676 25.999 121.923 25.2121 121.204 24.87C120.485 24.4937 119.835 24.4937 119.8 24.4937H119.39V24.9042C119.39 27.5041 120.759 28.9067 122.059 29.5567C123.395 30.2066 124.661 30.2066 124.695 30.2066C124.73 30.2066 125.996 30.2066 127.331 29.5567C128.631 28.9067 130 27.5041 130 24.9042C130 22.3386 128.631 20.936 127.331 20.286C126.257 19.7636 125.229 19.6611 124.849 19.6232C124.756 19.6139 124.701 19.6085 124.695 19.6019H124.627C124.421 19.6019 123.908 19.5334 123.463 19.2597C123.018 18.9518 122.642 18.5414 122.642 17.5835V12.6915C122.642 11.6311 123.154 11.1864 123.668 10.9127Z" />
<path d="M99.3774 48.2174C98.8189 48.2174 98.2223 48.0912 97.7909 47.902C97.7654 47.8893 97.7019 47.9146 97.6892 47.9776L97.5242 48.5203C97.4989 48.596 97.5242 48.6592 97.575 48.6844C98.1208 48.8863 98.7555 48.9999 99.3774 48.9999C101.103 48.9999 101.979 48.2932 101.979 46.4254C101.979 44.7974 101.472 44.1285 99.7327 43.914C98.3365 43.7373 98.2732 43.6237 98.2732 42.3617C98.2732 40.9987 98.2732 40.5949 99.8342 40.5949C100.393 40.5949 100.989 40.7211 101.421 40.9104C101.446 40.9231 101.51 40.8978 101.522 40.8346L101.687 40.292C101.713 40.2163 101.687 40.1532 101.637 40.128C101.091 39.9261 100.456 39.8125 99.8342 39.8125C98.1082 39.8125 97.3593 40.5066 97.3593 42.387C97.3593 44.0023 97.905 44.4945 99.6312 44.6964C101.027 44.8605 101.078 45.1887 101.078 46.4381C101.078 47.801 100.926 48.2174 99.3774 48.2174Z" />
<path d="M111.136 40.1407C111.136 40.0775 111.098 40.0271 111.047 40.0271H110.374C110.323 40.0271 110.286 40.0775 110.286 40.1407V43.7626H107.214V40.1407C107.214 40.0775 107.176 40.0271 107.125 40.0271H106.452C106.402 40.0271 106.363 40.0775 106.363 40.1407V48.7097C106.363 48.7727 106.402 48.8233 106.452 48.8233H107.125C107.176 48.8233 107.214 48.7727 107.214 48.7097V44.5199H110.286V48.7097C110.286 48.7727 110.323 48.8233 110.374 48.8233H111.047C111.098 48.8233 111.136 48.7727 111.136 48.7097V40.1407Z" />
<path d="M118.109 48.167C116.637 48.167 116.294 47.8137 116.294 44.343C116.294 40.9861 116.637 40.6328 118.109 40.6328C119.582 40.6328 119.911 40.9861 119.911 44.343C119.911 47.8137 119.582 48.167 118.109 48.167ZM118.109 48.9999C119.886 48.9999 120.838 48.1796 120.838 44.343C120.838 40.6328 119.886 39.8125 118.109 39.8125C116.32 39.8125 115.367 40.6328 115.367 44.343C115.367 48.1796 116.32 48.9999 118.109 48.9999Z" />
<path d="M125.973 40.7842H128.029C128.727 40.7842 128.893 41.1124 128.893 42.5259C128.893 44.0024 128.702 44.3179 128.029 44.3179H125.973V40.7842ZM125.973 45.0751H128.029C129.362 45.0751 129.806 44.0907 129.806 42.5259C129.806 40.8853 129.159 40.0271 128.029 40.0271H125.212C125.161 40.0271 125.123 40.0775 125.123 40.1407V48.7097C125.123 48.7727 125.161 48.8233 125.212 48.8233H125.884C125.935 48.8233 125.973 48.7727 125.973 48.7097V45.0751Z" />
<path fill-rule="evenodd" clip-rule="evenodd" d="M89.1058 44.6875H1.50122V44.125H89.1058V44.6875Z" />
</g>
<defs>

</defs>
</symbol><clipPath id="icon-logo_clip0_155_524">
<rect width="130" height="49" fill="white" />
</clipPath><symbol viewBox="0 0 24 24" fill="none" id="icon-mail">
<path fill-rule="evenodd" clip-rule="evenodd" d="M2.25 6C2.25 5.0335 3.0335 4.25 4 4.25H20C20.9665 4.25 21.75 5.0335 21.75 6V18C21.75 18.9665 20.9665 19.75 20 19.75H4C3.0335 19.75 2.25 18.9665 2.25 18V6ZM4.81066 5.75L11.1161 12.0555C11.6043 12.5436 12.3957 12.5436 12.8839 12.0555L19.1893 5.75H4.81066ZM20.25 6.81066L13.9445 13.1161C12.8706 14.1901 11.1294 14.1901 10.0555 13.1161L3.75 6.81066V18C3.75 18.1381 3.86193 18.25 4 18.25H20C20.1381 18.25 20.25 18.1381 20.25 18V6.81066Z" fill="#FF6431" />
</symbol><symbol viewBox="0 0 16 16" id="icon-persent">
<g id="icon-persent_carbon:percentage">
<path id="icon-persent_Vector" d="M4.5 7C4.00555 7 3.5222 6.85338 3.11108 6.57867C2.69995 6.30397 2.37952 5.91352 2.1903 5.45671C2.00108 4.99989 1.95157 4.49723 2.04804 4.01228C2.1445 3.52732 2.3826 3.08187 2.73223 2.73223C3.08187 2.3826 3.52732 2.1445 4.01228 2.04804C4.49723 1.95157 4.99989 2.00108 5.45671 2.1903C5.91352 2.37952 6.30397 2.69995 6.57867 3.11108C6.85338 3.5222 7 4.00555 7 4.5C6.99934 5.16284 6.73573 5.79834 6.26704 6.26704C5.79834 6.73573 5.16284 6.99934 4.5 7ZM4.5 3C4.20333 3 3.91332 3.08797 3.66665 3.2528C3.41997 3.41762 3.22771 3.65189 3.11418 3.92598C3.00065 4.20007 2.97095 4.50167 3.02882 4.79264C3.0867 5.08361 3.22956 5.35088 3.43934 5.56066C3.64912 5.77044 3.91639 5.9133 4.20737 5.97118C4.49834 6.02906 4.79994 5.99935 5.07403 5.88582C5.34812 5.77229 5.58238 5.58003 5.74721 5.33336C5.91203 5.08668 6 4.79667 6 4.5C5.9996 4.1023 5.84144 3.721 5.56022 3.43978C5.279 3.15856 4.8977 3.0004 4.5 3ZM2 13.293L13.2925 2L14 2.7075L2.707 14L2 13.293ZM11.5 14C11.0055 14 10.5222 13.8534 10.1111 13.5787C9.69995 13.304 9.37952 12.9135 9.1903 12.4567C9.00108 11.9999 8.95157 11.4972 9.04804 11.0123C9.1445 10.5273 9.3826 10.0819 9.73223 9.73223C10.0819 9.3826 10.5273 9.1445 11.0123 9.04804C11.4972 8.95157 11.9999 9.00108 12.4567 9.1903C12.9135 9.37952 13.304 9.69995 13.5787 10.1111C13.8534 10.5222 14 11.0055 14 11.5C13.9993 12.1628 13.7357 12.7983 13.267 13.267C12.7983 13.7357 12.1628 13.9993 11.5 14ZM11.5 10C11.2033 10 10.9133 10.088 10.6666 10.2528C10.42 10.4176 10.2277 10.6519 10.1142 10.926C10.0007 11.2001 9.97094 11.5017 10.0288 11.7926C10.0867 12.0836 10.2296 12.3509 10.4393 12.5607C10.6491 12.7704 10.9164 12.9133 11.2074 12.9712C11.4983 13.0291 11.7999 12.9994 12.074 12.8858C12.3481 12.7723 12.5824 12.58 12.7472 12.3334C12.912 12.0867 13 11.7967 13 11.5C12.9996 11.1023 12.8414 10.721 12.5602 10.4398C12.279 10.1586 11.8977 10.0004 11.5 10Z" />
</g>
</symbol><symbol viewBox="0 0 29 28" id="icon-person">
<path fill-rule="evenodd" clip-rule="evenodd" d="M14.7388 4.375C12.6447 4.375 10.9471 6.07259 10.9471 8.16667C10.9471 10.2607 12.6447 11.9583 14.7388 11.9583C16.8329 11.9583 18.5305 10.2607 18.5305 8.16667C18.5305 6.07259 16.8329 4.375 14.7388 4.375ZM9.19712 8.16667C9.19712 5.10609 11.6782 2.625 14.7388 2.625C17.7994 2.625 20.2805 5.10609 20.2805 8.16667C20.2805 11.2272 17.7994 13.7083 14.7388 13.7083C11.6782 13.7083 9.19712 11.2272 9.19712 8.16667ZM4.53046 22.1667C4.53046 19.1061 7.01155 16.625 10.0721 16.625H19.4055C22.466 16.625 24.9471 19.1061 24.9471 22.1667V24.5C24.9471 24.9832 24.5554 25.375 24.0721 25.375C23.5889 25.375 23.1971 24.9832 23.1971 24.5V22.1667C23.1971 20.0726 21.4995 18.375 19.4055 18.375H10.0721C7.97804 18.375 6.28046 20.0726 6.28046 22.1667V24.5C6.28046 24.9832 5.88871 25.375 5.40546 25.375C4.92221 25.375 4.53046 24.9832 4.53046 24.5V22.1667Z" />
</symbol><symbol viewBox="0 0 34 34" fill="none" id="icon-photos">
<path fill-rule="evenodd" clip-rule="evenodd" d="M1.62512 8.70813H29.5418V30.2498H1.62512V8.70813ZM2.62512 9.70813V29.2498H28.5418V9.70813H2.62512Z" fill="black" />
<path fill-rule="evenodd" clip-rule="evenodd" d="M5.16675 5.1665H33.0834V26.7082H29.0417V25.7082H32.0834V6.1665H6.16675V9.20817H5.16675V5.1665Z" fill="black" />
<path fill-rule="evenodd" clip-rule="evenodd" d="M10.6252 14.876L18.4168 22.6676L23.3752 17.7093L29.3954 23.7295L28.6883 24.4366L23.3752 19.1235L18.4168 24.0819L10.6252 16.2902L2.47871 24.4366L1.77161 23.7295L10.6252 14.876Z" fill="black" />
</symbol><symbol viewBox="0 0 24 24" fill="none" id="icon-pin">
<path d="M20 11C20 15.4183 16.4183 19 12 21C7.58172 19 4 15.4183 4 11C4 6.58172 7.58172 3 12 3C16.4183 3 20 6.58172 20 11Z" stroke="#FF6431" stroke-width="1.5" stroke-linecap="round" stroke-linejoin="round" />
<path d="M15 11C15 12.6569 13.6569 14 12 14C10.3431 14 9 12.6569 9 11C9 9.34315 10.3431 8 12 8C13.6569 8 15 9.34315 15 11Z" stroke="#FF6431" stroke-width="1.5" stroke-linecap="round" stroke-linejoin="round" />
</symbol><symbol viewBox="0 0 24 24" id="icon-plus">
<path d="M12 4C12.5523 4 13 4.44772 13 5V11H19C19.5523 11 20 11.4477 20 12C20 12.5523 19.5523 13 19 13H13V19C13 19.5523 12.5523 20 12 20C11.4477 20 11 19.5523 11 19V13H5C4.44772 13 4 12.5523 4 12C4 11.4477 4.44772 11 5 11H11V5C11 4.44772 11.4477 4 12 4Z" />
</symbol><symbol viewBox="0 0 28 28" id="icon-search">
<path fill-rule="evenodd" clip-rule="evenodd" d="M12.1357 4.33425C7.82705 4.33425 4.33419 7.82711 4.33419 12.1358C4.33419 16.4444 7.82705 19.9373 12.1357 19.9373C16.4444 19.9373 19.9372 16.4444 19.9372 12.1358C19.9372 7.82711 16.4444 4.33425 12.1357 4.33425ZM2.60052 12.1358C2.60052 6.86963 6.86957 2.60059 12.1357 2.60059C17.4018 2.60059 21.6709 6.86963 21.6709 12.1358C21.6709 14.4567 20.8416 16.584 19.4633 18.2375L23.7285 22.5027C24.0671 22.8412 24.0671 23.3901 23.7285 23.7286C23.39 24.0671 22.8412 24.0671 22.5027 23.7286L18.2374 19.4633C16.5839 20.8417 14.4566 21.6709 12.1357 21.6709C6.86957 21.6709 2.60052 17.4019 2.60052 12.1358Z" />
</symbol><symbol viewBox="0 0 16 16" fill="none" id="icon-shop">
<path d="M2.3335 7.33325V9.33325C2.3335 11.8473 2.3335 13.1046 3.11483 13.8853C3.8955 14.6666 5.15283 14.6666 7.66683 14.6666H8.3335C10.8475 14.6666 12.1048 14.6666 12.8855 13.8853C13.6668 13.3071 13.6668 10.1133 13.6668 9.33325V7.33325" stroke="#1C1F22" stroke-linecap="round" />
<path d="M6.33351 1.33325H9.66684M6.33351 1.33325L5.89884 5.67792C5.87021 5.9711 5.90324 6.26702 5.99581 6.54667C6.08838 6.82632 6.23845 7.0835 6.43636 7.30168C6.63427 7.51987 6.87564 7.69422 7.14497 7.81354C7.41429 7.93286 7.70561 7.9945 8.00018 7.9945C8.29475 7.9945 8.58606 7.93286 8.85539 7.81354C9.12471 7.69422 9.36609 7.51987 9.564 7.30168C9.76191 7.0835 9.91197 6.82632 10.0045 6.54667C10.0971 6.26702 10.1301 5.9711 10.1015 5.67792L9.66684 1.33325M6.33351 1.33325H4.94551C4.34018 1.33325 4.03751 1.33325 3.77751 1.40459C3.50709 1.47876 3.25529 1.60896 3.03845 1.78675C2.82161 1.96454 2 4.5 1.86684 5.33325L1.82151 5.56059C1.76501 5.83237 1.76457 6.11282 1.82023 6.38478C1.87588 6.65674 1.98645 6.91448 2.14517 7.14222C2.30389 7.36996 2.50742 7.56291 2.7433 7.70926C2.97919 7.85561 3.24245 7.95228 3.51699 7.99335C3.79153 8.03442 4.07157 8.01903 4.33995 7.94811C4.60833 7.8772 4.85942 7.75225 5.07784 7.58093C5.29626 7.40961 5.47741 7.19551 5.61021 6.95174C5.74302 6.70798 5.82467 6.43967 5.85018 6.16325L6.33351 1.33325ZM9.66684 1.33325H11.0548C11.6602 1.33325 11.9628 1.33325 12.2228 1.40459C12.4933 1.47876 12.7451 1.60896 12.9619 1.78675C13.1787 1.96454 13.3558 2.18594 13.4815 2.43659C13.6022 2.67659 13.6615 2.97392 13.7802 3.56725L14.1788 5.56059C14.2353 5.83237 14.2358 6.11282 14.1801 6.38478C14.1245 6.65674 14.0139 6.91448 13.8552 7.14222C13.6965 7.36996 13.4929 7.56291 13.2571 7.70926C13.0212 7.85561 12.7579 7.95228 12.4834 7.99335C12.2088 8.03442 11.9288 8.01903 11.6604 7.94811C11.392 7.8772 11.1409 7.75225 10.9225 7.58093C10.7041 7.40961 10.5229 7.19551 10.3901 6.95174C10.2573 6.70798 10.1757 6.43967 10.1502 6.16325L9.66684 1.33325ZM6.33351 14.3333V12.3333C6.33351 11.7099 6.33351 11.3986 6.46751 11.1666C6.55528 11.0146 6.6815 10.8884 6.83351 10.8006C7.06551 10.6666 7.37684 10.6666 8.00018 10.6666C8.62351 10.6666 8.93484 10.6666 9.16684 10.8006C9.31885 10.8884 9.44508 11.0146 9.53284 11.1666C9.66684 11.3986 9.66684 11.7099 9.66684 12.3333V14.3333" stroke="#1C1F22" stroke-linecap="round" />
</symbol><symbol viewBox="0 0 53 53" fill="none" id="icon-smile">
<path d="M45.1319 3.78688C45.5776 4.10628 45.7273 4.54102 45.6697 5.0778C45.6386 5.36837 45.6752 5.66559 45.6597 5.95949C45.6331 6.44303 45.2284 6.81012 44.7549 6.79681C44.2992 6.78461 43.9134 6.42307 43.8956 5.95838C43.879 5.51809 43.8258 5.06227 43.9134 4.63973C43.9777 4.33363 44.2449 4.06857 44.4223 3.78577C44.6585 3.78577 44.8957 3.78577 45.1319 3.78577V3.78688Z" fill="#5D3A8E" />
<path d="M49.2133 8.48923C48.9793 8.97499 48.5935 9.16131 48.0613 9.11473C47.7397 9.08701 47.4126 9.11806 47.0889 9.10697C46.5744 9.09033 46.1908 8.68997 46.2041 8.19977C46.2163 7.724 46.5899 7.35358 47.09 7.33805C47.4137 7.32807 47.7408 7.35912 48.0624 7.33029C48.5946 7.28371 48.9804 7.47003 49.2144 7.95579V8.48812L49.2133 8.48923Z" fill="#5D3A8E" />
<path d="M26.5356 42.7208C29.5825 42.5944 32.4065 41.8203 34.9955 40.2222C35.7107 39.7808 36.2229 39.8218 36.5312 40.3486C36.8228 40.8488 36.621 41.3334 35.9446 41.7515C25.5555 48.1718 11.9076 42.5445 9.05808 30.6645C6.75295 21.0557 12.7015 11.3738 22.3334 9.05923C32.2036 6.68699 42.0606 12.9863 44.0675 22.981C45.0077 27.6645 44.1451 32.0419 41.647 36.1043C41.3199 36.6355 40.9274 36.7986 40.4695 36.6167C40.0615 36.4548 39.8131 36.0444 39.914 35.623C39.9639 35.4145 40.0859 35.2171 40.2012 35.0307C41.8377 32.3901 42.6349 29.5088 42.6216 26.4124C42.5895 18.5681 36.8993 11.8784 29.1989 10.6052C20.7966 9.21671 12.88 14.3715 10.841 22.6594C8.66779 31.4896 14.1462 40.2588 22.9521 42.204C24.1274 42.4635 25.3415 42.5523 26.5367 42.7208H26.5356Z" fill="#5D3A8E" />
<path d="M26.7418 35.5055C24.0132 35.5055 21.8244 33.3883 21.6759 30.6035C21.6426 29.9891 21.9963 29.5477 22.5352 29.5289C23.043 29.5111 23.4499 29.9159 23.4676 30.5048C23.4931 31.3577 23.787 32.0963 24.3846 32.6963C25.3348 33.649 26.4802 33.9528 27.7575 33.5303C29.0514 33.1022 29.7921 32.1728 29.9828 30.8154C30.0027 30.669 30.0171 30.5215 30.036 30.3751C30.1003 29.8638 30.4773 29.5134 30.943 29.53C31.4253 29.5466 31.8178 29.9459 31.8122 30.4693C31.8011 31.646 31.4264 32.7052 30.6802 33.6146C29.6646 34.8512 28.3418 35.4722 26.7418 35.5066V35.5055Z" fill="#5D3A8E" />
<path d="M23.298 23.1763C23.2925 23.6698 22.9698 24.0557 22.5241 24.1045C21.9986 24.1622 21.6194 23.8794 21.5251 23.336C21.4641 22.9877 21.3544 22.6827 20.9397 22.6916C20.5505 22.6994 20.4474 22.9944 20.3875 23.3238C20.2877 23.8794 19.9263 24.1567 19.3985 24.1045C18.9361 24.0591 18.6057 23.6565 18.6113 23.143C18.6246 21.9097 19.7112 20.8872 20.9929 20.9005C22.2436 20.9138 23.3124 21.9685 23.298 23.1752V23.1763Z" fill="#5D3A8E" />
<path d="M34.8469 23.1341C34.8535 23.6775 34.5586 24.0546 34.0885 24.1045C33.5496 24.1622 33.1471 23.855 33.0773 23.2916C33.0329 22.9322 32.8855 22.6871 32.5096 22.6938C32.157 22.7005 32.024 22.9378 31.9763 23.2783C31.8931 23.8716 31.474 24.1799 30.9274 24.1034C30.4573 24.0369 30.1568 23.6065 30.1978 23.0576C30.2943 21.7733 31.3332 20.8617 32.6515 20.9049C33.8457 20.9448 34.8336 21.9474 34.848 23.1341H34.8469Z" fill="#5D3A8E" />
<path d="M41.8355 9.10922C41.6137 9.10922 41.3919 9.12031 41.1702 9.107C40.6757 9.07817 40.3297 8.69222 40.3408 8.19648C40.3519 7.72403 40.6967 7.35805 41.1791 7.34141C41.6215 7.32588 42.0661 7.32477 42.5085 7.34141C42.9775 7.35915 43.3389 7.74621 43.3489 8.20535C43.3589 8.68113 42.9886 9.08039 42.4996 9.107C42.279 9.1192 42.0561 9.10922 41.8343 9.10922H41.8355Z" fill="#5D3A8E" />
<path d="M7.33503 41.787C7.33503 41.5796 7.32506 41.3722 7.33725 41.166C7.36608 40.6902 7.7353 40.3486 8.20985 40.3442C8.68552 40.3397 9.07802 40.6758 9.1002 41.146C9.12237 41.6029 9.12016 42.0632 9.1002 42.5201C9.08135 42.9881 8.68996 43.3474 8.22982 43.353C7.75416 43.3596 7.35943 42.9859 7.33614 42.4968C7.32506 42.2606 7.33392 42.0244 7.33392 41.787H7.33503Z" fill="#5D3A8E" />
<path d="M5.28048 43.8942C5.51665 43.8942 5.75504 43.8798 5.9901 43.8975C6.44913 43.9319 6.80504 44.3389 6.79507 44.7958C6.7862 45.2372 6.44027 45.6343 5.99898 45.6576C5.52775 45.682 5.05208 45.6809 4.58086 45.6576C4.11185 45.6343 3.77921 45.2372 3.78586 44.7604C3.79252 44.2868 4.13734 43.9219 4.61522 43.8953C4.83587 43.8831 5.05873 43.8931 5.28048 43.8931V43.8942Z" fill="#5D3A8E" />
<path d="M45.6619 11.152C45.6619 11.3738 45.6718 11.5956 45.6596 11.8175C45.633 12.3165 45.255 12.6659 44.7604 12.6592C44.287 12.6526 43.9122 12.3088 43.8945 11.8319C43.8767 11.3894 43.8779 10.9446 43.8945 10.5021C43.9111 10.0142 44.3158 9.64262 44.7915 9.65039C45.2516 9.65815 45.6308 10.0186 45.6596 10.4877C45.673 10.7084 45.6619 10.9313 45.6619 11.1531V11.152Z" fill="#5D3A8E" />
<path d="M9.10688 47.7271C9.10688 47.9345 9.11464 48.1408 9.10577 48.3482C9.0847 48.855 8.72214 49.2099 8.23095 49.2143C7.73644 49.2188 7.35614 48.8683 7.33951 48.367C7.3251 47.9245 7.32288 47.4798 7.34062 47.0373C7.35947 46.5693 7.75086 46.2111 8.21211 46.2055C8.67114 46.2 9.0703 46.556 9.10356 47.0184C9.1202 47.2536 9.10688 47.4909 9.10688 47.7271C9.10688 47.7271 9.10688 47.7271 9.10799 47.7271H9.10688Z" fill="#5D3A8E" />
<path d="M11.1348 45.6642C10.9131 45.6642 10.6902 45.6764 10.4696 45.662C10.005 45.6309 9.64685 45.2395 9.64685 44.7803C9.64685 44.3212 10.0039 43.9197 10.4685 43.8997C10.9253 43.8798 11.3854 43.8798 11.8422 43.8997C12.3157 43.9197 12.6549 44.3045 12.6561 44.7792C12.6561 45.2539 12.3168 45.631 11.8444 45.6631C11.6094 45.6786 11.3721 45.6653 11.1348 45.6653V45.6642Z" fill="#5D3A8E" />
<path d="M38.5225 39.457C38.0302 39.4592 37.6133 39.0511 37.6155 38.5698C37.6177 38.0995 38.0413 37.6748 38.5202 37.6648C39.0247 37.6537 39.4339 38.0363 39.445 38.5298C39.456 39.0222 39.0247 39.4559 38.5225 39.457Z" fill="#5D3A8E" />
</symbol><symbol viewBox="0 0 20 20" id="icon-smile-2">
<path fill-rule="evenodd" clip-rule="evenodd" d="M10 1.75C5.44365 1.75 1.75 5.44365 1.75 10C1.75 14.5563 5.44365 18.25 10 18.25C14.5563 18.25 18.25 14.5563 18.25 10C18.25 5.44365 14.5563 1.75 10 1.75ZM0.25 10C0.25 4.61522 4.61522 0.25 10 0.25C15.3848 0.25 19.75 4.61522 19.75 10C19.75 15.3848 15.3848 19.75 10 19.75C4.61522 19.75 0.25 15.3848 0.25 10ZM6.25 7C6.25 6.58579 6.58579 6.25 7 6.25H7.01C7.42421 6.25 7.76 6.58579 7.76 7C7.76 7.41421 7.42421 7.75 7.01 7.75H7C6.58579 7.75 6.25 7.41421 6.25 7ZM12.25 7C12.25 6.58579 12.5858 6.25 13 6.25H13.01C13.4242 6.25 13.76 6.58579 13.76 7C13.76 7.41421 13.4242 7.75 13.01 7.75H13C12.5858 7.75 12.25 7.41421 12.25 7ZM6.59955 11.5494C6.3509 11.2185 5.88117 11.1516 5.55 11.4C5.21863 11.6485 5.15147 12.1186 5.4 12.45L6 12C5.4 12.45 5.39981 12.4497 5.4 12.45L5.40169 12.4522L5.40395 12.4552L5.41018 12.4634L5.42942 12.488C5.44525 12.508 5.4671 12.535 5.49485 12.5681C5.55031 12.6342 5.62965 12.7247 5.73195 12.8314C5.93593 13.0443 6.23476 13.3254 6.62137 13.6066C7.3917 14.1668 8.54335 14.75 10 14.75C11.4566 14.75 12.6083 14.1668 13.3786 13.6066C13.7652 13.3254 14.0641 13.0443 14.2681 12.8314C14.3704 12.7247 14.4497 12.6342 14.5051 12.5681C14.5329 12.535 14.5547 12.508 14.5706 12.488L14.5898 12.4634L14.596 12.4552L14.5983 12.4522L14.5992 12.451C14.5994 12.4508 14.6 12.45 14 12L14.6 12.45C14.8485 12.1186 14.7814 11.6485 14.45 11.4C14.1188 11.1516 13.649 11.2186 13.4003 11.5496L13.4011 11.5485L13.3945 11.5569C13.3871 11.5662 13.3743 11.5822 13.3562 11.6038C13.3198 11.6471 13.2625 11.7128 13.1851 11.7936C13.0297 11.9557 12.7973 12.1746 12.4964 12.3934C11.8917 12.8332 11.0434 13.25 10 13.25C8.95665 13.25 8.1083 12.8332 7.50363 12.3934C7.20274 12.1746 6.97032 11.9557 6.81493 11.7936C6.73754 11.7128 6.68016 11.6471 6.64382 11.6038C6.62567 11.5822 6.61285 11.5662 6.60549 11.5569L6.59886 11.5485L6.59955 11.5494Z" />
</symbol><symbol viewBox="0 0 76 76" fill="none" id="icon-star">
<path d="M38 0L43.5545 24.5902L64.8701 11.1299L51.4098 32.4455L76 38L51.4098 43.5545L64.8701 64.8701L43.5545 51.4098L38 76L32.4455 51.4098L11.1299 64.8701L24.5902 43.5545L0 38L24.5902 32.4455L11.1299 11.1299L32.4455 24.5902L38 0Z" fill="#3D3D9E" />
</symbol><symbol viewBox="0 0 20 20" fill="none" id="icon-star-border">
<path d="M19.1482 9.90283L16.0042 12.9642L16.7482 17.2922C16.8762 18.0415 16.5749 18.7802 15.9589 19.2228C15.3482 19.6708 14.5509 19.7268 13.8789 19.3695L9.99888 17.3295L6.11088 19.3722C5.82288 19.5242 5.50822 19.6042 5.19622 19.6042C4.78822 19.6042 4.38555 19.4762 4.03888 19.2255C3.42555 18.7802 3.12422 18.0415 3.25222 17.2922L3.99355 12.9642L0.84955 9.90283C0.30555 9.37483 0.116217 8.59883 0.350883 7.87616C0.588217 7.15616 1.20155 6.64416 1.95088 6.5375L6.28688 5.9055L8.23088 1.96683C8.56955 1.2895 9.24688 0.868164 9.99888 0.868164H10.0042C10.7589 0.870831 11.4362 1.29216 11.7695 1.9695L13.7135 5.9055L18.0575 6.54016C18.7989 6.64416 19.4122 7.15616 19.6469 7.87616C19.8842 8.59883 19.6949 9.37483 19.1482 9.90283Z" fill="#FF6431" />
</symbol><symbol viewBox="0 0 16 16" fill="none" id="icon-t-shirt">
<g id="icon-t-shirt_jersey">
<path id="icon-t-shirt_Vector" d="M11.91 14.22H4.06L3.56 13.72V7.06H2.15L1.67 6.68L1 4L1.33 3.4L5.59 2L6.23 2.32C6.24566 2.37163 6.26573 2.42181 6.29 2.47C6.3341 2.5696 6.3842 2.66645 6.44 2.76C6.51145 2.86344 6.59175 2.96047 6.68 3.05C6.84789 3.21902 7.04871 3.35176 7.27 3.44C7.49601 3.53655 7.73923 3.58633 7.985 3.58633C8.23077 3.58633 8.47399 3.53655 8.7 3.44C8.92129 3.35176 9.12211 3.21902 9.29 3.05C9.37916 2.95501 9.46264 2.85483 9.54 2.75L9.69 2.46C9.70952 2.4144 9.72622 2.36765 9.74 2.32L10.38 2L14.64 3.42L15 4L14.34 6.66L13.85 7.04H12.41V13.7L11.91 14.22ZM4.56 13.22H11.41V6.56L11.91 6.06H13.43L13.89 4.23L10.49 3.09C10.4576 3.16409 10.4174 3.23449 10.37 3.3C10.2608 3.46107 10.1369 3.61171 10 3.75C9.74065 4.01231 9.43118 4.21976 9.09 4.36C8.73878 4.50852 8.36133 4.58504 7.98 4.58504C7.59867 4.58504 7.22122 4.50852 6.87 4.36C6.54513 4.21159 6.25025 4.00483 6 3.75C5.86122 3.61975 5.74019 3.47182 5.64 3.31L5.51 3.09L2.08 4.23L2.54 6.06H4.06L4.56 6.56V13.22Z" fill="#1C1F22" />
</g>
</symbol><symbol viewBox="0 0 24 26" fill="none" id="icon-trash">
<path d="M20.25 4.875H3.75C3.55109 4.875 3.36032 4.9606 3.21967 5.11298C3.07902 5.26535 3 5.47201 3 5.6875C3 5.90299 3.07902 6.10965 3.21967 6.26202C3.36032 6.4144 3.55109 6.5 3.75 6.5H4.5V21.125C4.5 21.556 4.65804 21.9693 4.93934 22.274C5.22064 22.5788 5.60218 22.75 6 22.75H18C18.3978 22.75 18.7794 22.5788 19.0607 22.274C19.342 21.9693 19.5 21.556 19.5 21.125V6.5H20.25C20.4489 6.5 20.6397 6.4144 20.7803 6.26202C20.921 6.10965 21 5.90299 21 5.6875C21 5.47201 20.921 5.26535 20.7803 5.11298C20.6397 4.9606 20.4489 4.875 20.25 4.875ZM18 21.125H6V6.5H18V21.125ZM7.5 2.4375C7.5 2.22201 7.57902 2.01535 7.71967 1.86298C7.86032 1.7106 8.05109 1.625 8.25 1.625H15.75C15.9489 1.625 16.1397 1.7106 16.2803 1.86298C16.421 2.01535 16.5 2.22201 16.5 2.4375C16.5 2.65299 16.421 2.85965 16.2803 3.01202C16.1397 3.1644 15.9489 3.25 15.75 3.25H8.25C8.05109 3.25 7.86032 3.1644 7.71967 3.01202C7.57902 2.85965 7.5 2.65299 7.5 2.4375Z" fill="#C7CBCC" />
</symbol><symbol viewBox="0 0 16 16" id="icon-wallet">
<path fill-rule="evenodd" clip-rule="evenodd" d="M1.5 5.33333C1.5 4.32081 2.32081 3.5 3.33333 3.5H12.6667C13.6792 3.5 14.5 4.32081 14.5 5.33333V10.6667C14.5 11.6792 13.6792 12.5 12.6667 12.5H3.33333C2.32081 12.5 1.5 11.6792 1.5 10.6667V5.33333ZM13.5 9.5V6.5H9.33333C8.50491 6.5 7.83333 7.17157 7.83333 8C7.83333 8.82843 8.50491 9.5 9.33333 9.5H13.5ZM13.5 5.5H9.33333C7.95262 5.5 6.83333 6.61929 6.83333 8C6.83333 9.38071 7.95262 10.5 9.33333 10.5H13.5V10.6667C13.5 11.1269 13.1269 11.5 12.6667 11.5H3.33333C2.8731 11.5 2.5 11.1269 2.5 10.6667V5.33333C2.5 4.8731 2.8731 4.5 3.33333 4.5H12.6667C13.1269 4.5 13.5 4.8731 13.5 5.33333V5.5ZM9.33333 7.50001C9.60948 7.50001 9.83333 7.72387 9.83333 8.00001V8.00667C9.83333 8.28282 9.60948 8.50667 9.33333 8.50667C9.05719 8.50667 8.83333 8.28282 8.83333 8.00667V8.00001C8.83333 7.72387 9.05719 7.50001 9.33333 7.50001Z" />
</symbol></defs><use id="icon-arrow-usage" xlink:href="#icon-arrow" class="sprite-symbol-usage" /><use id="icon-arrow-pointer-usage" xlink:href="#icon-arrow-pointer" class="sprite-symbol-usage" /><use id="icon-badge-usage" xlink:href="#icon-badge" class="sprite-symbol-usage" /><use id="icon-button-usage" xlink:href="#icon-button" class="sprite-symbol-usage" /><use id="icon-buy-usage" xlink:href="#icon-buy" class="sprite-symbol-usage" /><use id="icon-call-usage" xlink:href="#icon-call" class="sprite-symbol-usage" /><use id="icon-car-usage" xlink:href="#icon-car" class="sprite-symbol-usage" /><use id="icon-cart-usage" xlink:href="#icon-cart" class="sprite-symbol-usage" /><use id="icon-check-usage" xlink:href="#icon-check" class="sprite-symbol-usage" /><use id="icon-clarity-usage" xlink:href="#icon-clarity" class="sprite-symbol-usage" /><use id="icon-clip-usage" xlink:href="#icon-clip" class="sprite-symbol-usage" /><use id="icon-close-usage" xlink:href="#icon-close" class="sprite-symbol-usage" /><use id="icon-cum-usage" xlink:href="#icon-cum" class="sprite-symbol-usage" /><use id="icon-eye-usage" xlink:href="#icon-eye" class="sprite-symbol-usage" /><use id="icon-eye-close-usage" xlink:href="#icon-eye-close" class="sprite-symbol-usage" /><use id="icon-filter-usage" xlink:href="#icon-filter" class="sprite-symbol-usage" /><use id="icon-heart-usage" xlink:href="#icon-heart" class="sprite-symbol-usage" /><use id="icon-heart-fill-usage" xlink:href="#icon-heart-fill" class="sprite-symbol-usage" /><use id="icon-home-usage" xlink:href="#icon-home" class="sprite-symbol-usage" /><use id="icon-logo-usage" xlink:href="#icon-logo" class="sprite-symbol-usage" /><use id="icon-mail-usage" xlink:href="#icon-mail" class="sprite-symbol-usage" /><use id="icon-persent-usage" xlink:href="#icon-persent" class="sprite-symbol-usage" /><use id="icon-person-usage" xlink:href="#icon-person" class="sprite-symbol-usage" /><use id="icon-photos-usage" xlink:href="#icon-photos" class="sprite-symbol-usage" /><use id="icon-pin-usage" xlink:href="#icon-pin" class="sprite-symbol-usage" /><use id="icon-plus-usage" xlink:href="#icon-plus" class="sprite-symbol-usage" /><use id="icon-search-usage" xlink:href="#icon-search" class="sprite-symbol-usage" /><use id="icon-shop-usage" xlink:href="#icon-shop" class="sprite-symbol-usage" /><use id="icon-smile-usage" xlink:href="#icon-smile" class="sprite-symbol-usage" /><use id="icon-smile-2-usage" xlink:href="#icon-smile-2" class="sprite-symbol-usage" /><use id="icon-star-usage" xlink:href="#icon-star" class="sprite-symbol-usage" /><use id="icon-star-border-usage" xlink:href="#icon-star-border" class="sprite-symbol-usage" /><use id="icon-t-shirt-usage" xlink:href="#icon-t-shirt" class="sprite-symbol-usage" /><use id="icon-trash-usage" xlink:href="#icon-trash" class="sprite-symbol-usage" /><use id="icon-wallet-usage" xlink:href="#icon-wallet" class="sprite-symbol-usage" /></svg>